<svg xmlns="http://www.w3.org/2000/svg" xmlns:xlink="http://www.w3.org/1999/xlink" width="1511" zoomAndPan="magnify" viewBox="0 0 1134 850.499975" height="1133" preserveAspectRatio="xMidYMid meet" version="1.0"><defs><g/><clipPath id="8828479183"><path d="M 371 60.164062 L 759 60.164062 L 759 481.839844 L 371 481.839844 Z M 371 60.164062 " clip-rule="nonzero"/></clipPath></defs><g clip-path="url(#8828479183)"><path fill="#5383ff" d="M 557.777344 152.90625 C 558.488281 152.90625 559.082031 152.90625 559.675781 153.027344 C 564.070312 140.4375 568.9375 128.328125 574.28125 116.6875 C 580.21875 103.628906 586.632812 91.277344 593.402344 79.519531 C 593.164062 79.285156 593.046875 79.164062 592.808594 78.925781 L 511.703125 139.488281 C 512.414062 140.914062 512.769531 142.578125 512.769531 144.359375 C 512.769531 144.832031 512.769531 145.1875 512.652344 145.664062 L 547.800781 158.964844 C 549.703125 155.28125 553.5 152.90625 557.777344 152.90625 M 505.765625 186.871094 C 506.597656 184.613281 508.257812 182.59375 510.277344 181.289062 L 501.609375 155.402344 C 495.433594 155.402344 490.566406 150.414062 490.566406 144.238281 C 490.566406 144 490.566406 143.644531 490.566406 143.40625 L 451.261719 128.445312 C 450.546875 129.394531 449.597656 130.34375 448.648438 131.058594 L 463.847656 174.402344 C 464.085938 174.402344 464.320312 174.402344 464.558594 174.402344 C 470.257812 174.402344 474.890625 178.558594 475.601562 184.019531 Z M 516.214844 179.507812 C 518.472656 179.507812 520.609375 180.21875 522.390625 181.40625 C 526.070312 178.4375 529.988281 175.707031 534.144531 173.332031 C 538.183594 170.957031 542.457031 168.820312 546.972656 166.917969 C 546.734375 166.207031 546.613281 165.496094 546.613281 164.664062 L 510.515625 151.007812 C 509.683594 152.195312 508.613281 153.144531 507.308594 153.859375 L 515.976562 179.625 Z M 387.253906 212.164062 C 388.796875 212.992188 390.222656 214.179688 391.292969 215.605469 L 453.636719 187.9375 C 453.515625 187.105469 453.398438 186.394531 453.398438 185.5625 C 453.398438 181.761719 455.296875 178.4375 458.148438 176.417969 L 442.949219 133.078125 C 442.710938 133.078125 442.472656 133.078125 442.234375 133.078125 C 440.097656 133.078125 437.960938 132.484375 436.296875 131.296875 C 424.660156 142.457031 414.6875 155.042969 406.136719 169.175781 C 398.0625 182.714844 391.765625 196.964844 387.253906 212.164062 Z M 394.261719 345.398438 C 396.042969 345.398438 397.703125 345.753906 399.128906 346.464844 L 445.441406 293.742188 C 444.253906 291.960938 443.660156 289.941406 443.660156 287.566406 C 443.660156 285.667969 444.136719 283.886719 444.964844 282.34375 L 387.492188 231.992188 C 385.949219 232.824219 384.167969 233.300781 382.386719 233.300781 C 380.25 245.292969 379.179688 257.878906 379.179688 270.941406 C 379.179688 289.941406 381.4375 307.875 385.949219 324.855469 C 387.847656 331.980469 390.105469 338.867188 392.835938 345.636719 C 393.3125 345.398438 393.785156 345.398438 394.261719 345.398438 Z M 454.347656 350.265625 C 455.179688 346.824219 457.554688 343.972656 460.761719 342.546875 L 453.992188 298.730469 C 452.566406 298.609375 451.140625 298.253906 449.953125 297.660156 L 403.640625 350.386719 C 404.117188 351.214844 404.59375 352.046875 404.828125 352.996094 Z M 442.949219 416.648438 C 444.609375 415.339844 446.746094 414.507812 449.003906 414.390625 L 460.046875 362.617188 C 457.433594 361.308594 455.535156 358.933594 454.585938 356.203125 L 405.066406 358.933594 C 404.59375 361.191406 403.40625 363.328125 401.625 364.871094 C 403.046875 367.484375 404.472656 370.097656 406.015625 372.589844 C 415.042969 387.554688 425.730469 400.851562 438.199219 412.492188 C 439.859375 413.796875 441.402344 415.222656 442.949219 416.648438 Z M 500.066406 404.652344 C 500.066406 404.179688 499.945312 403.820312 499.945312 403.347656 C 499.945312 397.648438 504.222656 393.015625 509.683594 392.304688 L 512.175781 360.242188 C 509.328125 358.933594 507.070312 356.441406 506.121094 353.355469 L 475.960938 355.015625 C 474.890625 359.886719 470.734375 363.566406 465.746094 363.804688 L 454.703125 415.578125 C 456.246094 416.410156 457.671875 417.597656 458.742188 419.140625 Z M 497.570312 450.488281 C 499.234375 447.519531 502.085938 445.382812 505.527344 444.910156 L 508.019531 414.152344 C 505.765625 413.441406 503.746094 412.132812 502.320312 410.234375 L 460.878906 424.839844 C 460.878906 425.078125 460.878906 425.316406 460.878906 425.550781 C 460.878906 427.097656 460.523438 428.519531 460.046875 429.945312 C 466.578125 434.457031 473.585938 438.734375 480.828125 442.535156 C 486.289062 445.382812 491.871094 447.996094 497.570312 450.488281 Z M 551.125 410.117188 C 552.433594 408.097656 554.453125 406.554688 556.707031 405.722656 C 554.570312 398.359375 552.550781 391.234375 550.769531 383.992188 C 550.53125 383.992188 550.414062 383.992188 550.175781 383.992188 C 544.003906 383.992188 539.015625 379.003906 539.015625 372.828125 C 539.015625 371.996094 539.132812 371.285156 539.253906 370.574219 C 538.421875 370.097656 537.472656 369.621094 536.640625 369.148438 C 531.652344 366.296875 527.019531 363.210938 522.628906 359.648438 C 521.320312 360.480469 519.777344 360.953125 518.113281 361.191406 L 515.621094 393.132812 C 519.421875 394.796875 522.035156 398.476562 522.269531 402.871094 Z M 570.125 467.113281 C 571.195312 464.027344 573.570312 461.53125 576.65625 460.347656 C 571.90625 449.066406 567.515625 437.902344 563.714844 426.976562 C 562.644531 427.332031 561.578125 427.453125 560.507812 427.453125 C 554.332031 427.453125 549.347656 422.464844 549.347656 416.289062 L 549.347656 415.816406 L 520.964844 408.691406 C 519.539062 411.304688 517.046875 413.320312 514.078125 414.152344 L 511.582031 445.503906 C 515.738281 447.164062 518.589844 451.203125 518.589844 455.832031 C 518.589844 456.546875 518.472656 457.257812 518.351562 457.851562 C 522.152344 459.039062 525.953125 459.988281 529.753906 460.941406 C 542.695312 464.144531 556.113281 466.164062 570.125 467.113281 Z M 486.171875 238.167969 C 486.289062 238.167969 486.527344 238.167969 486.648438 238.167969 C 487.714844 233.539062 489.140625 229.144531 490.683594 224.867188 C 494.601562 214.539062 499.945312 205.15625 506.832031 196.726562 C 506.003906 195.539062 505.527344 194.113281 505.289062 192.6875 L 474.773438 189.839844 C 473.941406 191.738281 472.632812 193.402344 470.851562 194.589844 Z M 478.335938 256.335938 C 476.789062 254.4375 475.839844 251.941406 475.839844 249.332031 C 475.839844 245.53125 477.742188 242.207031 480.589844 240.1875 L 465.273438 196.605469 C 465.035156 196.605469 464.796875 196.605469 464.558594 196.605469 C 461.355469 196.605469 458.503906 195.300781 456.484375 193.164062 L 393.429688 221.070312 C 393.429688 221.425781 393.429688 221.664062 393.429688 222.019531 C 393.429688 224.15625 392.835938 226.054688 391.886719 227.71875 L 449.121094 277.949219 C 450.785156 277 452.804688 276.40625 454.824219 276.40625 C 456.605469 276.40625 458.265625 276.761719 459.691406 277.472656 Z M 483.320312 259.898438 L 483.085938 259.78125 L 464.085938 281.511719 C 465.273438 283.292969 465.867188 285.3125 465.867188 287.566406 C 465.867188 291.960938 463.371094 295.640625 459.808594 297.542969 L 466.578125 341.714844 C 470.851562 342.191406 474.414062 345.160156 475.722656 349.078125 L 506.121094 347.417969 C 506.359375 346.347656 506.835938 345.398438 507.308594 344.566406 C 503.507812 339.816406 500.066406 334.710938 496.976562 329.128906 C 492.226562 320.578125 488.785156 311.4375 486.410156 301.699219 C 484.035156 291.960938 482.847656 281.75 482.847656 270.824219 C 482.964844 267.144531 483.085938 263.460938 483.320312 259.898438 Z M 501.492188 97.097656 C 498.996094 96.265625 496.859375 94.601562 495.433594 92.464844 C 490.683594 94.484375 485.933594 96.738281 481.304688 99.234375 C 470.972656 104.578125 461.355469 110.75 452.449219 117.519531 C 453.042969 118.828125 453.398438 120.371094 453.398438 121.914062 C 453.398438 122.269531 453.398438 122.625 453.398438 122.984375 L 492.585938 137.828125 C 494.367188 135.332031 497.097656 133.550781 500.304688 133.195312 Z M 515.859375 84.863281 C 515.976562 85.339844 515.976562 85.933594 515.976562 86.410156 C 515.976562 91.632812 512.296875 96.027344 507.425781 97.214844 L 506.242188 133.90625 C 506.835938 134.144531 507.308594 134.5 507.902344 134.738281 L 589.484375 73.820312 C 563.121094 74.058594 538.539062 77.738281 515.859375 84.863281 Z M 653.367188 276.523438 L 749.4375 276.523438 L 749.4375 421.753906 C 727.46875 437.546875 702.175781 449.539062 673.675781 457.972656 C 646.363281 466.046875 619.050781 470.203125 591.859375 470.558594 L 591.859375 470.675781 C 591.859375 476.851562 586.871094 481.839844 580.695312 481.839844 C 575.351562 481.839844 570.839844 478.039062 569.769531 473.050781 C 555.402344 472.101562 541.628906 469.964844 528.328125 466.757812 C 524.050781 465.6875 519.777344 464.5 515.621094 463.3125 C 513.601562 465.570312 510.632812 466.996094 507.308594 466.996094 C 501.253906 466.996094 496.382812 462.246094 496.148438 456.308594 C 489.972656 453.695312 483.914062 450.847656 477.976562 447.757812 C 470.378906 443.722656 463.136719 439.328125 456.246094 434.578125 C 454.464844 435.882812 452.210938 436.714844 449.714844 436.714844 C 443.542969 436.714844 438.554688 431.726562 438.554688 425.550781 C 438.554688 424.128906 438.792969 422.703125 439.386719 421.394531 C 437.605469 419.851562 435.941406 418.308594 434.277344 416.765625 C 421.453125 404.773438 410.410156 390.996094 401.148438 375.558594 C 399.484375 372.828125 397.941406 370.214844 396.515625 367.484375 C 395.804688 367.605469 395.09375 367.722656 394.378906 367.722656 C 388.203125 367.722656 383.21875 362.734375 383.21875 356.558594 C 383.21875 352.996094 384.878906 349.910156 387.375 347.890625 C 384.523438 340.886719 382.148438 333.640625 380.25 326.28125 C 375.617188 308.824219 373.242188 290.296875 373.242188 270.941406 C 373.242188 257.40625 374.3125 244.34375 376.566406 231.757812 C 373.242188 229.855469 371.105469 226.292969 371.105469 222.136719 C 371.105469 216.320312 375.617188 211.449219 381.4375 210.976562 C 386.066406 195.183594 392.597656 180.21875 401.148438 166.089844 C 409.9375 151.484375 420.386719 138.421875 432.378906 126.902344 C 431.667969 125.359375 431.191406 123.695312 431.191406 121.914062 C 431.191406 115.738281 436.179688 110.75 442.355469 110.75 C 444.730469 110.75 446.984375 111.464844 448.886719 112.890625 C 458.027344 105.882812 468.003906 99.589844 478.691406 94.007812 C 483.679688 91.394531 488.664062 89.019531 493.773438 86.882812 L 493.773438 86.644531 C 493.773438 80.472656 498.757812 75.484375 504.933594 75.484375 C 508.378906 75.484375 511.464844 77.027344 513.601562 79.519531 C 537.351562 71.921875 562.882812 68.238281 590.3125 68.121094 C 591.621094 63.492188 595.894531 60.164062 601 60.164062 C 607.175781 60.164062 612.164062 65.152344 612.164062 71.328125 C 612.164062 71.566406 612.164062 71.683594 612.164062 71.921875 C 639.355469 73.941406 664.414062 79.640625 686.972656 89.257812 C 715.472656 101.371094 739.34375 118.707031 758.34375 141.390625 L 689.230469 203.96875 C 663.226562 175.46875 632.113281 161.101562 595.894531 161.101562 C 586.394531 161.101562 577.488281 161.933594 569.058594 163.59375 C 569.058594 163.714844 569.058594 163.949219 569.058594 164.070312 C 569.058594 170.246094 564.070312 175.230469 557.894531 175.230469 C 554.925781 175.230469 552.195312 174.042969 550.175781 172.144531 C 545.664062 173.925781 541.390625 176.0625 537.234375 178.4375 C 533.433594 180.695312 529.871094 183.1875 526.425781 185.917969 C 527.140625 187.34375 527.496094 189.007812 527.496094 190.667969 C 527.496094 196.84375 522.507812 201.832031 516.332031 201.832031 C 514.550781 201.832031 512.890625 201.476562 511.464844 200.644531 C 505.050781 208.480469 500.066406 217.269531 496.382812 226.886719 C 494.839844 230.925781 493.535156 235.199219 492.464844 239.476562 C 495.910156 241.375 498.164062 245.054688 498.164062 249.210938 C 498.164062 254.554688 494.367188 259.066406 489.378906 260.136719 C 489.140625 263.582031 489.023438 267.144531 489.023438 270.707031 C 489.023438 281.15625 490.089844 290.890625 492.347656 300.15625 C 494.601562 309.296875 497.929688 317.96875 502.320312 326.160156 C 505.050781 331.265625 508.257812 335.898438 511.703125 340.292969 C 513.246094 339.460938 515.027344 338.984375 517.046875 338.984375 C 523.222656 338.984375 528.207031 343.972656 528.207031 350.148438 C 528.207031 352.046875 527.734375 353.828125 526.902344 355.371094 C 530.820312 358.460938 535.097656 361.429688 539.609375 363.921875 C 540.441406 364.398438 541.152344 364.753906 541.984375 365.230469 C 544.003906 362.972656 546.96875 361.667969 550.175781 361.667969 C 556.351562 361.667969 561.339844 366.652344 561.339844 372.828125 C 561.339844 373.898438 561.21875 374.964844 560.863281 376.035156 C 571.3125 379.003906 582.59375 380.546875 594.707031 380.546875 C 615.605469 380.546875 635.199219 376.390625 653.488281 367.960938 L 653.488281 276.523438 Z M 653.367188 276.523438 " fill-opacity="1" fill-rule="evenodd"/></g><path fill="#5383ff" d="M 746.46875 279.492188 L 656.335938 279.492188 L 656.335938 369.859375 L 654.554688 370.691406 C 645.175781 374.964844 635.558594 378.171875 625.464844 380.308594 C 615.488281 382.445312 605.15625 383.515625 594.46875 383.515625 C 583.664062 383.515625 573.332031 382.328125 563.714844 379.953125 C 553.976562 377.578125 544.953125 373.898438 536.519531 369.148438 C 528.089844 364.398438 520.488281 358.578125 513.957031 351.929688 C 507.308594 345.277344 501.726562 337.558594 496.976562 329.011719 C 492.226562 320.460938 488.785156 311.316406 486.410156 301.578125 C 484.035156 291.84375 482.847656 281.628906 482.847656 270.707031 C 482.847656 253.722656 485.460938 238.40625 490.566406 224.75 C 495.789062 210.976562 503.507812 198.980469 513.839844 188.769531 C 524.171875 178.4375 536.164062 170.839844 549.941406 165.613281 C 563.59375 160.507812 578.796875 157.894531 595.539062 157.894531 C 614.0625 157.894531 631.28125 161.574219 647.3125 168.820312 C 662.394531 175.707031 676.40625 185.917969 689.113281 199.457031 L 753.949219 140.796875 C 745.042969 130.464844 735.1875 121.4375 724.261719 113.363281 C 712.503906 104.816406 699.679688 97.570312 685.667969 91.632812 C 671.65625 85.695312 656.574219 81.183594 640.664062 78.214844 C 624.75 75.246094 607.886719 73.703125 590.195312 73.703125 C 569.890625 73.703125 550.652344 75.839844 532.484375 79.996094 C 514.316406 84.152344 497.214844 90.445312 481.183594 98.878906 C 465.152344 107.308594 450.902344 117.28125 438.316406 128.921875 C 425.847656 140.558594 415.042969 153.859375 406.015625 168.820312 C 396.992188 183.78125 390.222656 199.695312 385.710938 216.675781 C 381.199219 233.65625 378.941406 251.585938 378.941406 270.585938 C 378.941406 289.585938 381.199219 307.515625 385.710938 324.5 C 390.222656 341.359375 396.992188 357.390625 406.015625 372.355469 C 415.042969 387.316406 425.730469 400.617188 438.199219 412.253906 C 450.667969 423.890625 464.796875 433.984375 480.589844 442.296875 C 512.296875 459.039062 548.160156 467.46875 587.9375 467.46875 C 602.070312 467.46875 616.199219 466.402344 630.332031 464.382812 C 644.460938 462.246094 658.59375 459.160156 672.726562 455.003906 C 686.855469 450.847656 700.15625 445.738281 712.625 439.800781 C 724.617188 434.101562 735.78125 427.570312 746.347656 420.089844 L 746.347656 279.492188 Z M 653.367188 273.554688 L 752.40625 273.554688 L 752.40625 423.296875 L 751.21875 424.246094 C 740.171875 432.203125 728.179688 439.207031 715.355469 445.382812 C 702.53125 451.558594 688.992188 456.664062 674.625 460.9375 C 660.257812 465.214844 645.769531 468.421875 631.402344 470.558594 C 617.03125 472.695312 602.542969 473.765625 588.175781 473.765625 C 547.445312 473.765625 510.753906 465.09375 478.097656 447.878906 C 461.710938 439.207031 447.222656 428.878906 434.398438 416.882812 C 421.574219 404.890625 410.53125 391.117188 401.265625 375.679688 C 392.003906 360.242188 385 343.855469 380.367188 326.28125 C 375.734375 308.824219 373.363281 290.296875 373.363281 270.941406 C 373.363281 251.46875 375.734375 233.0625 380.367188 215.605469 C 385 198.148438 392.003906 181.644531 401.265625 166.207031 C 410.53125 150.769531 421.691406 137.113281 434.636719 125 C 447.578125 113.007812 462.304688 102.675781 478.808594 94.007812 C 495.316406 85.339844 512.890625 78.925781 531.535156 74.652344 C 550.175781 70.378906 569.769531 68.238281 590.550781 68.238281 C 608.601562 68.238281 625.820312 69.785156 642.207031 72.871094 C 658.476562 75.957031 673.914062 80.472656 688.398438 86.644531 C 702.886719 92.820312 716.1875 100.300781 728.296875 109.089844 C 740.410156 117.875 751.21875 128.089844 760.953125 139.609375 L 762.734375 141.746094 L 760.597656 143.644531 L 691.011719 206.105469 L 688.753906 208.125 L 686.738281 205.988281 C 674.03125 191.976562 660.019531 181.527344 644.9375 174.519531 C 629.738281 167.511719 613.351562 164.070312 595.65625 164.070312 C 579.507812 164.070312 565.019531 166.445312 552.078125 171.3125 C 539.253906 176.183594 527.851562 183.425781 518.113281 193.042969 C 508.378906 202.664062 501.015625 214.0625 496.148438 226.886719 C 491.277344 239.832031 488.785156 254.4375 488.785156 270.824219 C 488.785156 281.273438 489.851562 291.011719 492.109375 300.273438 C 494.367188 309.417969 497.691406 318.085938 502.085938 326.28125 C 506.476562 334.355469 511.820312 341.597656 518.113281 347.890625 C 524.289062 354.183594 531.414062 359.648438 539.371094 364.160156 C 547.328125 368.671875 555.996094 372.117188 565.140625 374.371094 C 574.28125 376.628906 584.140625 377.816406 594.46875 377.816406 C 604.683594 377.816406 614.65625 376.746094 624.15625 374.726562 C 633.0625 372.828125 641.730469 369.980469 650.164062 366.296875 L 650.164062 273.792969 L 653.367188 273.792969 Z M 653.367188 273.554688 " fill-opacity="1" fill-rule="nonzero"/><g fill="#171717" fill-opacity="1"><g transform="translate(100.80023, 660.20098)"><g><path d="M 129.984375 -86.484375 L 167.390625 -86.484375 L 167.390625 -20.171875 C 158.160156 -13.691406 147.023438 -8.382812 133.984375 -4.25 C 120.953125 -0.125 108.523438 1.9375 96.703125 1.9375 C 70.785156 1.9375 49.160156 -6.359375 31.828125 -22.953125 C 14.492188 -39.554688 5.828125 -60.25 5.828125 -85.03125 C 5.828125 -109.65625 14.734375 -130.226562 32.546875 -146.75 C 50.367188 -163.269531 72.722656 -171.53125 99.609375 -171.53125 C 112.242188 -171.53125 124.796875 -169.257812 137.265625 -164.71875 C 149.734375 -160.1875 160.34375 -154.03125 169.09375 -146.25 L 144.796875 -116.859375 C 138.640625 -122.523438 131.507812 -127.019531 123.40625 -130.34375 C 115.3125 -133.664062 107.300781 -135.328125 99.375 -135.328125 C 85.4375 -135.328125 73.726562 -130.503906 64.25 -120.859375 C 54.78125 -111.222656 50.046875 -99.28125 50.046875 -85.03125 C 50.046875 -70.613281 54.820312 -58.546875 64.375 -48.828125 C 73.9375 -39.109375 85.765625 -34.25 99.859375 -34.25 C 108.921875 -34.25 118.960938 -37.003906 129.984375 -42.515625 Z M 129.984375 -86.484375 "/></g></g></g><g fill="#171717" fill-opacity="1"><g transform="translate(276.457509, 660.20098)"><g><path d="M 74.09375 -132.40625 C 96.769531 -132.40625 113.816406 -125.441406 125.234375 -111.515625 C 136.660156 -97.585938 141.644531 -78.472656 140.1875 -54.171875 L 48.109375 -54.171875 C 50.210938 -46.398438 53.9375 -40.410156 59.28125 -36.203125 C 64.625 -31.992188 71.179688 -29.890625 78.953125 -29.890625 C 90.941406 -29.890625 101.390625 -34.34375 110.296875 -43.25 L 132.40625 -21.625 C 118.3125 -6.238281 99.28125 1.453125 75.3125 1.453125 C 54.09375 1.453125 37.207031 -4.617188 24.65625 -16.765625 C 12.101562 -28.910156 5.828125 -45.023438 5.828125 -65.109375 C 5.828125 -85.359375 12.101562 -101.632812 24.65625 -113.9375 C 37.207031 -126.25 53.6875 -132.40625 74.09375 -132.40625 Z M 47.375 -76.765625 L 99.859375 -76.765625 C 99.859375 -84.703125 97.546875 -91.097656 92.921875 -95.953125 C 88.304688 -100.816406 82.195312 -103.25 74.59375 -103.25 C 67.457031 -103.25 61.457031 -100.859375 56.59375 -96.078125 C 51.738281 -91.304688 48.664062 -84.867188 47.375 -76.765625 Z M 47.375 -76.765625 "/></g></g></g><g fill="#171717" fill-opacity="1"><g transform="translate(417.857938, 660.20098)"><g><path d="M 102.53125 -132.890625 C 116.945312 -132.890625 128.523438 -128.3125 137.265625 -119.15625 C 146.015625 -110.007812 150.390625 -97.828125 150.390625 -82.609375 L 150.390625 0 L 108.59375 0 L 108.59375 -70.9375 C 108.59375 -78.550781 106.523438 -84.582031 102.390625 -89.03125 C 98.265625 -93.488281 92.640625 -95.71875 85.515625 -95.71875 C 78.066406 -95.71875 71.953125 -93.285156 67.171875 -88.421875 C 62.398438 -83.566406 59.609375 -77.171875 58.796875 -69.234375 L 58.796875 0 L 16.765625 0 L 16.765625 -130.953125 L 58.796875 -130.953125 L 58.796875 -109.578125 C 68.023438 -124.796875 82.601562 -132.566406 102.53125 -132.890625 Z M 102.53125 -132.890625 "/></g></g></g><g fill="#171717" fill-opacity="1"><g transform="translate(576.508283, 660.20098)"><g><path d="M 74.09375 -132.40625 C 96.769531 -132.40625 113.816406 -125.441406 125.234375 -111.515625 C 136.660156 -97.585938 141.644531 -78.472656 140.1875 -54.171875 L 48.109375 -54.171875 C 50.210938 -46.398438 53.9375 -40.410156 59.28125 -36.203125 C 64.625 -31.992188 71.179688 -29.890625 78.953125 -29.890625 C 90.941406 -29.890625 101.390625 -34.34375 110.296875 -43.25 L 132.40625 -21.625 C 118.3125 -6.238281 99.28125 1.453125 75.3125 1.453125 C 54.09375 1.453125 37.207031 -4.617188 24.65625 -16.765625 C 12.101562 -28.910156 5.828125 -45.023438 5.828125 -65.109375 C 5.828125 -85.359375 12.101562 -101.632812 24.65625 -113.9375 C 37.207031 -126.25 53.6875 -132.40625 74.09375 -132.40625 Z M 47.375 -76.765625 L 99.859375 -76.765625 C 99.859375 -84.703125 97.546875 -91.097656 92.921875 -95.953125 C 88.304688 -100.816406 82.195312 -103.25 74.59375 -103.25 C 67.457031 -103.25 61.457031 -100.859375 56.59375 -96.078125 C 51.738281 -91.304688 48.664062 -84.867188 47.375 -76.765625 Z M 47.375 -76.765625 "/></g></g></g><g fill="#171717" fill-opacity="1"><g transform="translate(717.908723, 660.20098)"><g><path d="M 63.65625 -132.890625 C 82.925781 -132.890625 100.90625 -127.953125 117.59375 -118.078125 L 103.25 -90.859375 C 87.050781 -99.609375 73.285156 -103.984375 61.953125 -103.984375 C 53.367188 -103.984375 49.078125 -100.988281 49.078125 -95 C 49.078125 -91.757812 51.425781 -89.046875 56.125 -86.859375 C 60.820312 -84.671875 66.570312 -82.6875 73.375 -80.90625 C 80.175781 -79.125 86.9375 -76.894531 93.65625 -74.21875 C 100.375 -71.550781 106.082031 -67.300781 110.78125 -61.46875 C 115.476562 -55.632812 117.828125 -48.507812 117.828125 -40.09375 C 117.828125 -26.96875 112.722656 -16.71875 102.515625 -9.34375 C 92.316406 -1.976562 79.039062 1.703125 62.6875 1.703125 C 39.519531 1.703125 19.921875 -4.453125 3.890625 -16.765625 L 17.25 -43.484375 C 32.632812 -32.628906 48.101562 -27.203125 63.65625 -27.203125 C 73.207031 -27.203125 77.984375 -30.203125 77.984375 -36.203125 C 77.984375 -39.597656 75.675781 -42.429688 71.0625 -44.703125 C 66.445312 -46.972656 60.816406 -49 54.171875 -50.78125 C 47.535156 -52.5625 40.894531 -54.785156 34.25 -57.453125 C 27.613281 -60.128906 21.988281 -64.300781 17.375 -69.96875 C 12.757812 -75.632812 10.453125 -82.757812 10.453125 -91.34375 C 10.453125 -104.46875 15.390625 -114.671875 25.265625 -121.953125 C 35.148438 -129.242188 47.945312 -132.890625 63.65625 -132.890625 Z M 63.65625 -132.890625 "/></g></g></g><g fill="#171717" fill-opacity="1"><g transform="translate(837.686037, 660.20098)"><g><path d="M 21.984375 -184.515625 C 26.117188 -188.648438 31.425781 -190.71875 37.90625 -190.71875 C 44.382812 -190.71875 49.6875 -188.648438 53.8125 -184.515625 C 57.945312 -180.390625 60.015625 -175.085938 60.015625 -168.609375 C 60.015625 -162.128906 57.945312 -156.78125 53.8125 -152.5625 C 49.6875 -148.351562 44.382812 -146.25 37.90625 -146.25 C 31.425781 -146.25 26.117188 -148.351562 21.984375 -152.5625 C 17.859375 -156.78125 15.796875 -162.128906 15.796875 -168.609375 C 15.796875 -175.085938 17.859375 -180.390625 21.984375 -184.515625 Z M 58.546875 0 L 16.765625 0 L 16.765625 -130.953125 L 58.546875 -130.953125 Z M 58.546875 0 "/></g></g></g><g fill="#171717" fill-opacity="1"><g transform="translate(908.386169, 660.20098)"><g><path d="M 63.65625 -132.890625 C 82.925781 -132.890625 100.90625 -127.953125 117.59375 -118.078125 L 103.25 -90.859375 C 87.050781 -99.609375 73.285156 -103.984375 61.953125 -103.984375 C 53.367188 -103.984375 49.078125 -100.988281 49.078125 -95 C 49.078125 -91.757812 51.425781 -89.046875 56.125 -86.859375 C 60.820312 -84.671875 66.570312 -82.6875 73.375 -80.90625 C 80.175781 -79.125 86.9375 -76.894531 93.65625 -74.21875 C 100.375 -71.550781 106.082031 -67.300781 110.78125 -61.46875 C 115.476562 -55.632812 117.828125 -48.507812 117.828125 -40.09375 C 117.828125 -26.96875 112.722656 -16.71875 102.515625 -9.34375 C 92.316406 -1.976562 79.039062 1.703125 62.6875 1.703125 C 39.519531 1.703125 19.921875 -4.453125 3.890625 -16.765625 L 17.25 -43.484375 C 32.632812 -32.628906 48.101562 -27.203125 63.65625 -27.203125 C 73.207031 -27.203125 77.984375 -30.203125 77.984375 -36.203125 C 77.984375 -39.597656 75.675781 -42.429688 71.0625 -44.703125 C 66.445312 -46.972656 60.816406 -49 54.171875 -50.78125 C 47.535156 -52.5625 40.894531 -54.785156 34.25 -57.453125 C 27.613281 -60.128906 21.988281 -64.300781 17.375 -69.96875 C 12.757812 -75.632812 10.453125 -82.757812 10.453125 -91.34375 C 10.453125 -104.46875 15.390625 -114.671875 25.265625 -121.953125 C 35.148438 -129.242188 47.945312 -132.890625 63.65625 -132.890625 Z M 63.65625 -132.890625 "/></g></g></g><path fill="#5383ff" d="M 837.644531 696.027344 L 1006.148438 696.027344 C 1021.78125 696.027344 1034.453125 708.699219 1034.453125 724.332031 L 1034.453125 780.941406 C 1034.453125 796.574219 1021.78125 809.246094 1006.148438 809.246094 L 837.644531 809.246094 C 822.011719 809.246094 809.339844 796.574219 809.339844 780.941406 L 809.339844 724.332031 C 809.339844 708.699219 822.011719 696.027344 837.644531 696.027344 Z M 837.644531 696.027344 " fill-opacity="1" fill-rule="nonzero"/><g fill="#ffffff" fill-opacity="1"><g transform="translate(849.850647, 774.630818)"><g><path d="M 25.0625 0.734375 C 21.9375 0.734375 19.035156 0.164062 16.359375 -0.96875 C 13.679688 -2.101562 11.367188 -3.65625 9.421875 -5.625 C 7.484375 -7.59375 5.960938 -9.914062 4.859375 -12.59375 C 3.765625 -15.269531 3.21875 -18.128906 3.21875 -21.171875 L 3.21875 -21.296875 C 3.21875 -24.335938 3.765625 -27.1875 4.859375 -29.84375 C 5.960938 -32.5 7.484375 -34.828125 9.421875 -36.828125 C 11.367188 -38.835938 13.703125 -40.421875 16.421875 -41.578125 C 19.140625 -42.734375 22.140625 -43.3125 25.421875 -43.3125 C 27.410156 -43.3125 29.222656 -43.148438 30.859375 -42.828125 C 32.503906 -42.503906 33.992188 -42.054688 35.328125 -41.484375 C 36.671875 -40.921875 37.910156 -40.234375 39.046875 -39.421875 C 40.179688 -38.609375 41.238281 -37.710938 42.21875 -36.734375 L 36.25 -29.859375 C 34.59375 -31.367188 32.898438 -32.546875 31.171875 -33.390625 C 29.453125 -34.242188 27.515625 -34.671875 25.359375 -34.671875 C 23.578125 -34.671875 21.925781 -34.328125 20.40625 -33.640625 C 18.882812 -32.953125 17.578125 -32 16.484375 -30.78125 C 15.390625 -29.5625 14.535156 -28.148438 13.921875 -26.546875 C 13.316406 -24.953125 13.015625 -23.238281 13.015625 -21.40625 L 13.015625 -21.296875 C 13.015625 -19.460938 13.316406 -17.734375 13.921875 -16.109375 C 14.535156 -14.492188 15.378906 -13.078125 16.453125 -11.859375 C 17.523438 -10.640625 18.820312 -9.675781 20.34375 -8.96875 C 21.863281 -8.257812 23.535156 -7.90625 25.359375 -7.90625 C 27.796875 -7.90625 29.851562 -8.347656 31.53125 -9.234375 C 33.21875 -10.128906 34.894531 -11.347656 36.5625 -12.890625 L 42.515625 -6.875 C 41.421875 -5.695312 40.285156 -4.640625 39.109375 -3.703125 C 37.929688 -2.773438 36.644531 -1.972656 35.25 -1.296875 C 33.851562 -0.628906 32.320312 -0.125 30.65625 0.21875 C 28.988281 0.5625 27.125 0.734375 25.0625 0.734375 Z M 25.0625 0.734375 "/></g></g></g><g fill="#ffffff" fill-opacity="1"><g transform="translate(895.950542, 774.630818)"><g><path d="M 5.109375 -42.578125 L 24.578125 -42.578125 C 29.972656 -42.578125 34.109375 -41.140625 36.984375 -38.265625 C 39.421875 -35.828125 40.640625 -32.582031 40.640625 -28.53125 L 40.640625 -28.40625 C 40.640625 -24.957031 39.796875 -22.148438 38.109375 -19.984375 C 36.421875 -17.816406 34.222656 -16.222656 31.515625 -15.203125 L 41.90625 0 L 30.96875 0 L 21.84375 -13.625 L 14.484375 -13.625 L 14.484375 0 L 5.109375 0 Z M 23.96875 -21.890625 C 26.28125 -21.890625 28.050781 -22.4375 29.28125 -23.53125 C 30.519531 -24.632812 31.140625 -26.097656 31.140625 -27.921875 L 31.140625 -28.046875 C 31.140625 -30.066406 30.488281 -31.582031 29.1875 -32.59375 C 27.894531 -33.613281 26.09375 -34.125 23.78125 -34.125 L 14.484375 -34.125 L 14.484375 -21.890625 Z M 23.96875 -21.890625 "/></g></g></g><g fill="#ffffff" fill-opacity="1"><g transform="translate(941.138179, 774.630818)"><g><path d="M 5.109375 -42.578125 L 15.203125 -42.578125 L 26.40625 -24.578125 L 37.59375 -42.578125 L 47.6875 -42.578125 L 47.6875 0 L 38.375 0 L 38.375 -27.796875 L 26.40625 -9.609375 L 26.15625 -9.609375 L 14.296875 -27.609375 L 14.296875 0 L 5.109375 0 Z M 5.109375 -42.578125 "/></g></g></g></svg>