<svg xmlns="http://www.w3.org/2000/svg" xmlns:xlink="http://www.w3.org/1999/xlink" width="1511" zoomAndPan="magnify" viewBox="0 0 1134 850.499975" height="1133" preserveAspectRatio="xMidYMid meet" version="1.0"><defs><g/><clipPath id="87f780d367"><path d="M 371 60.164062 L 759 60.164062 L 759 482 L 371 482 Z M 371 60.164062 " clip-rule="nonzero"/></clipPath><clipPath id="38792b95fd"><path d="M 373 68 L 762.871094 68 L 762.871094 474 L 373 474 Z M 373 68 " clip-rule="nonzero"/></clipPath></defs><g clip-path="url(#87f780d367)"><path fill="#ffffff" d="M 557.78125 152.90625 C 558.496094 152.90625 559.089844 152.90625 559.683594 153.023438 C 564.074219 140.4375 568.945312 128.324219 574.289062 116.6875 C 580.222656 103.625 586.636719 91.277344 593.40625 79.519531 C 593.167969 79.285156 593.050781 79.164062 592.8125 78.925781 L 511.707031 139.488281 C 512.421875 140.910156 512.777344 142.574219 512.777344 144.355469 C 512.777344 144.832031 512.777344 145.1875 512.660156 145.660156 L 547.808594 158.960938 C 549.707031 155.28125 553.507812 152.90625 557.78125 152.90625 M 505.773438 186.867188 C 506.601562 184.609375 508.265625 182.589844 510.285156 181.285156 L 501.617188 155.398438 C 495.441406 155.398438 490.570312 150.410156 490.570312 144.238281 C 490.570312 144 490.570312 143.644531 490.570312 143.40625 L 451.269531 128.445312 C 450.554688 129.394531 449.605469 130.34375 448.65625 131.054688 L 463.855469 174.398438 C 464.09375 174.398438 464.328125 174.398438 464.566406 174.398438 C 470.265625 174.398438 474.898438 178.554688 475.609375 184.015625 Z M 516.222656 179.503906 C 518.476562 179.503906 520.613281 180.214844 522.394531 181.402344 C 526.078125 178.433594 529.996094 175.703125 534.152344 173.328125 C 538.1875 170.953125 542.464844 168.816406 546.976562 166.917969 C 546.738281 166.203125 546.621094 165.492188 546.621094 164.660156 L 510.519531 151.003906 C 509.691406 152.191406 508.621094 153.140625 507.316406 153.855469 L 515.984375 179.621094 Z M 387.265625 212.160156 C 388.808594 212.988281 390.234375 214.175781 391.300781 215.601562 L 453.644531 187.933594 C 453.523438 187.101562 453.40625 186.390625 453.40625 185.558594 C 453.40625 181.761719 455.304688 178.433594 458.15625 176.417969 L 442.957031 133.074219 C 442.71875 133.074219 442.480469 133.074219 442.242188 133.074219 C 440.105469 133.074219 437.96875 132.480469 436.304688 131.292969 C 424.667969 142.457031 414.695312 155.042969 406.144531 169.171875 C 398.070312 182.710938 391.777344 196.960938 387.265625 212.160156 Z M 394.269531 345.390625 C 396.050781 345.390625 397.714844 345.746094 399.140625 346.457031 L 445.449219 293.734375 C 444.261719 291.953125 443.667969 289.9375 443.667969 287.5625 C 443.667969 285.660156 444.144531 283.878906 444.972656 282.335938 L 387.5 231.988281 C 385.957031 232.820312 384.175781 233.296875 382.394531 233.296875 C 380.257812 245.289062 379.191406 257.875 379.191406 270.9375 C 379.191406 289.9375 381.445312 307.867188 385.957031 324.847656 C 387.859375 331.972656 390.113281 338.859375 392.84375 345.628906 C 393.320312 345.390625 393.796875 345.390625 394.269531 345.390625 Z M 454.355469 350.257812 C 455.1875 346.816406 457.5625 343.964844 460.765625 342.539062 L 454 298.722656 C 452.574219 298.605469 451.148438 298.25 449.960938 297.65625 L 403.652344 350.378906 C 404.125 351.207031 404.601562 352.039062 404.839844 352.988281 Z M 442.957031 416.636719 C 444.617188 415.332031 446.753906 414.5 449.011719 414.378906 L 460.054688 362.609375 C 457.441406 361.300781 455.542969 358.925781 454.59375 356.195312 L 405.074219 358.925781 C 404.601562 361.183594 403.414062 363.320312 401.632812 364.863281 C 403.058594 367.476562 404.480469 370.089844 406.027344 372.582031 C 415.050781 387.542969 425.738281 400.84375 438.207031 412.480469 C 439.867188 413.785156 441.410156 415.210938 442.957031 416.636719 Z M 500.070312 404.644531 C 500.070312 404.167969 499.953125 403.8125 499.953125 403.335938 C 499.953125 397.636719 504.226562 393.007812 509.691406 392.292969 L 512.183594 360.234375 C 509.332031 358.925781 507.078125 356.433594 506.128906 353.347656 L 475.964844 355.007812 C 474.898438 359.875 470.742188 363.558594 465.753906 363.796875 L 454.710938 415.566406 C 456.253906 416.398438 457.679688 417.585938 458.75 419.128906 Z M 497.578125 450.480469 C 499.242188 447.511719 502.089844 445.371094 505.535156 444.898438 L 508.027344 414.144531 C 505.773438 413.429688 503.753906 412.125 502.328125 410.222656 L 460.886719 424.832031 C 460.886719 425.066406 460.886719 425.304688 460.886719 425.542969 C 460.886719 427.085938 460.53125 428.511719 460.054688 429.9375 C 466.585938 434.449219 473.589844 438.722656 480.835938 442.523438 C 486.296875 445.371094 491.878906 447.984375 497.578125 450.480469 Z M 551.132812 410.105469 C 552.4375 408.085938 554.457031 406.542969 556.714844 405.710938 C 554.574219 398.351562 552.558594 391.226562 550.777344 383.980469 C 550.539062 383.980469 550.417969 383.980469 550.183594 383.980469 C 544.007812 383.980469 539.019531 378.996094 539.019531 372.820312 C 539.019531 371.988281 539.140625 371.277344 539.257812 370.5625 C 538.425781 370.089844 537.476562 369.613281 536.644531 369.140625 C 531.65625 366.289062 527.027344 363.203125 522.632812 359.640625 C 521.328125 360.46875 519.785156 360.945312 518.121094 361.183594 L 515.628906 393.125 C 519.425781 394.789062 522.039062 398.46875 522.277344 402.863281 Z M 570.132812 467.101562 C 571.199219 464.015625 573.574219 461.523438 576.660156 460.335938 C 571.914062 449.054688 567.519531 437.890625 563.71875 426.96875 C 562.648438 427.324219 561.582031 427.441406 560.511719 427.441406 C 554.339844 427.441406 549.351562 422.457031 549.351562 416.28125 L 549.351562 415.804688 L 520.972656 408.679688 C 519.546875 411.292969 517.050781 413.3125 514.082031 414.144531 L 511.589844 445.492188 C 515.746094 447.152344 518.597656 451.191406 518.597656 455.824219 C 518.597656 456.535156 518.476562 457.246094 518.359375 457.839844 C 522.160156 459.027344 525.957031 459.980469 529.757812 460.929688 C 542.699219 464.132812 556.121094 466.152344 570.132812 467.101562 Z M 486.179688 238.164062 C 486.296875 238.164062 486.535156 238.164062 486.652344 238.164062 C 487.722656 233.53125 489.148438 229.140625 490.691406 224.863281 C 494.609375 214.535156 499.953125 205.152344 506.839844 196.722656 C 506.007812 195.535156 505.535156 194.109375 505.296875 192.683594 L 474.777344 189.835938 C 473.949219 191.734375 472.640625 193.398438 470.859375 194.585938 Z M 478.339844 256.332031 C 476.796875 254.429688 475.847656 251.9375 475.847656 249.324219 C 475.847656 245.527344 477.746094 242.199219 480.597656 240.183594 L 465.28125 196.601562 C 465.042969 196.601562 464.804688 196.601562 464.566406 196.601562 C 461.359375 196.601562 458.511719 195.296875 456.492188 193.160156 L 393.4375 221.0625 C 393.4375 221.421875 393.4375 221.65625 393.4375 222.015625 C 393.4375 224.152344 392.84375 226.050781 391.894531 227.714844 L 449.128906 277.941406 C 450.792969 276.992188 452.8125 276.398438 454.832031 276.398438 C 456.609375 276.398438 458.273438 276.753906 459.699219 277.46875 Z M 483.328125 259.894531 L 483.089844 259.773438 L 464.09375 281.503906 C 465.28125 283.285156 465.875 285.304688 465.875 287.5625 C 465.875 291.953125 463.378906 295.636719 459.816406 297.535156 L 466.585938 341.707031 C 470.859375 342.183594 474.421875 345.152344 475.730469 349.070312 L 506.128906 347.410156 C 506.367188 346.339844 506.839844 345.390625 507.316406 344.558594 C 503.515625 339.808594 500.070312 334.703125 496.984375 329.121094 C 492.234375 320.574219 488.792969 311.429688 486.417969 301.691406 C 484.042969 291.953125 482.855469 281.742188 482.855469 270.816406 C 482.972656 267.136719 483.089844 263.457031 483.328125 259.894531 Z M 501.496094 97.09375 C 499.003906 96.265625 496.867188 94.601562 495.441406 92.464844 C 490.691406 94.484375 485.941406 96.738281 481.308594 99.230469 C 470.980469 104.574219 461.359375 110.75 452.457031 117.519531 C 453.050781 118.824219 453.40625 120.367188 453.40625 121.914062 C 453.40625 122.269531 453.40625 122.625 453.40625 122.980469 L 492.589844 137.824219 C 494.371094 135.332031 497.101562 133.550781 500.308594 133.191406 Z M 515.863281 84.863281 C 515.984375 85.339844 515.984375 85.933594 515.984375 86.40625 C 515.984375 91.632812 512.300781 96.027344 507.433594 97.214844 L 506.246094 133.90625 C 506.839844 134.144531 507.316406 134.5 507.910156 134.738281 L 589.488281 73.820312 C 563.125 74.058594 538.546875 77.738281 515.863281 84.863281 Z M 653.371094 276.519531 L 749.4375 276.519531 L 749.4375 421.742188 C 727.46875 437.535156 702.175781 449.527344 673.675781 457.960938 C 646.367188 466.035156 619.054688 470.191406 591.863281 470.546875 L 591.863281 470.664062 C 591.863281 476.839844 586.875 481.828125 580.699219 481.828125 C 575.355469 481.828125 570.84375 478.027344 569.773438 473.039062 C 555.40625 472.089844 541.632812 469.953125 528.332031 466.746094 C 524.058594 465.679688 519.785156 464.492188 515.628906 463.304688 C 513.609375 465.558594 510.640625 466.984375 507.316406 466.984375 C 501.257812 466.984375 496.390625 462.234375 496.152344 456.296875 C 489.980469 453.683594 483.921875 450.835938 477.984375 447.746094 C 470.386719 443.710938 463.140625 439.316406 456.253906 434.566406 C 454.472656 435.875 452.21875 436.703125 449.722656 436.703125 C 443.550781 436.703125 438.5625 431.71875 438.5625 425.542969 C 438.5625 424.117188 438.800781 422.691406 439.394531 421.386719 C 437.613281 419.84375 435.949219 418.300781 434.289062 416.753906 C 421.460938 404.761719 410.417969 390.988281 401.15625 375.550781 C 399.496094 372.820312 397.953125 370.207031 396.527344 367.476562 C 395.8125 367.59375 395.101562 367.714844 394.390625 367.714844 C 388.214844 367.714844 383.226562 362.726562 383.226562 356.550781 C 383.226562 352.988281 384.890625 349.902344 387.382812 347.882812 C 384.535156 340.878906 382.160156 333.632812 380.257812 326.273438 C 375.628906 308.816406 373.253906 290.292969 373.253906 270.9375 C 373.253906 257.398438 374.320312 244.339844 376.578125 231.75 C 373.253906 229.851562 371.113281 226.289062 371.113281 222.132812 C 371.113281 216.316406 375.628906 211.445312 381.445312 210.972656 C 386.078125 195.179688 392.609375 180.214844 401.15625 166.085938 C 409.945312 151.480469 420.394531 138.417969 432.386719 126.898438 C 431.675781 125.355469 431.199219 123.695312 431.199219 121.914062 C 431.199219 115.738281 436.1875 110.75 442.363281 110.75 C 444.738281 110.75 446.992188 111.464844 448.894531 112.886719 C 458.035156 105.882812 468.011719 99.589844 478.699219 94.007812 C 483.683594 91.394531 488.671875 89.019531 493.777344 86.882812 L 493.777344 86.644531 C 493.777344 80.46875 498.765625 75.484375 504.941406 75.484375 C 508.382812 75.484375 511.472656 77.027344 513.609375 79.519531 C 537.359375 71.921875 562.886719 68.238281 590.316406 68.121094 C 591.625 63.488281 595.898438 60.164062 601.003906 60.164062 C 607.179688 60.164062 612.167969 65.152344 612.167969 71.328125 C 612.167969 71.566406 612.167969 71.683594 612.167969 71.921875 C 639.359375 73.941406 664.414062 79.640625 686.976562 89.257812 C 715.472656 101.371094 739.34375 118.707031 758.339844 141.386719 L 689.230469 203.964844 C 663.226562 175.464844 632.117188 161.097656 595.898438 161.097656 C 586.398438 161.097656 577.492188 161.929688 569.0625 163.59375 C 569.0625 163.710938 569.0625 163.949219 569.0625 164.066406 C 569.0625 170.242188 564.074219 175.230469 557.902344 175.230469 C 554.933594 175.230469 552.199219 174.042969 550.183594 172.140625 C 545.667969 173.921875 541.394531 176.058594 537.238281 178.433594 C 533.4375 180.691406 529.875 183.183594 526.433594 185.914062 C 527.144531 187.339844 527.5 189.003906 527.5 190.664062 C 527.5 196.839844 522.515625 201.828125 516.339844 201.828125 C 514.558594 201.828125 512.894531 201.472656 511.472656 200.640625 C 505.058594 208.476562 500.070312 217.265625 496.390625 226.882812 C 494.847656 230.921875 493.539062 235.195312 492.472656 239.46875 C 495.914062 241.371094 498.171875 245.050781 498.171875 249.207031 C 498.171875 254.550781 494.371094 259.0625 489.386719 260.132812 C 489.148438 263.574219 489.027344 267.136719 489.027344 270.699219 C 489.027344 281.148438 490.097656 290.886719 492.351562 300.148438 C 494.609375 309.292969 497.933594 317.960938 502.328125 326.152344 C 505.058594 331.257812 508.265625 335.890625 511.707031 340.285156 C 513.253906 339.453125 515.035156 338.976562 517.050781 338.976562 C 523.226562 338.976562 528.214844 343.964844 528.214844 350.140625 C 528.214844 352.039062 527.738281 353.820312 526.90625 355.363281 C 530.828125 358.453125 535.101562 361.421875 539.613281 363.914062 C 540.445312 364.390625 541.15625 364.746094 541.988281 365.21875 C 544.007812 362.964844 546.976562 361.65625 550.183594 361.65625 C 556.355469 361.65625 561.34375 366.644531 561.34375 372.820312 C 561.34375 373.886719 561.226562 374.957031 560.867188 376.027344 C 571.320312 378.996094 582.597656 380.539062 594.710938 380.539062 C 615.609375 380.539062 635.203125 376.382812 653.488281 367.953125 L 653.488281 276.519531 Z M 653.371094 276.519531 " fill-opacity="1" fill-rule="evenodd"/></g><g clip-path="url(#38792b95fd)"><path fill="#ffffff" d="M 746.46875 279.488281 L 656.339844 279.488281 L 656.339844 369.851562 L 654.558594 370.683594 C 645.179688 374.957031 635.558594 378.164062 625.464844 380.300781 C 615.492188 382.4375 605.160156 383.507812 594.472656 383.507812 C 583.667969 383.507812 573.335938 382.320312 563.71875 379.945312 C 553.980469 377.570312 544.957031 373.890625 536.527344 369.140625 C 528.09375 364.390625 520.496094 358.570312 513.964844 351.921875 C 507.316406 345.269531 501.734375 337.554688 496.984375 329.003906 C 492.234375 320.453125 488.792969 311.308594 486.417969 301.574219 C 484.042969 291.835938 482.855469 281.625 482.855469 270.699219 C 482.855469 253.71875 485.464844 238.402344 490.574219 224.746094 C 495.796875 210.972656 503.515625 198.976562 513.847656 188.765625 C 524.175781 178.433594 536.171875 170.835938 549.945312 165.609375 C 563.601562 160.503906 578.800781 157.890625 595.542969 157.890625 C 614.066406 157.890625 631.285156 161.574219 647.316406 168.816406 C 662.394531 175.703125 676.40625 185.914062 689.113281 199.453125 L 753.949219 140.792969 C 745.042969 130.460938 735.1875 121.4375 724.261719 113.363281 C 712.507812 104.8125 699.679688 97.570312 685.667969 91.632812 C 671.65625 85.695312 656.578125 81.183594 640.664062 78.214844 C 624.753906 75.246094 607.890625 73.703125 590.199219 73.703125 C 569.894531 73.703125 550.65625 75.839844 532.488281 79.996094 C 514.320312 84.152344 497.222656 90.445312 481.191406 98.875 C 465.160156 107.308594 450.910156 117.28125 438.324219 128.917969 C 425.855469 140.554688 415.050781 153.855469 406.027344 168.816406 C 397 183.777344 390.234375 199.691406 385.722656 216.671875 C 381.207031 233.652344 378.953125 251.582031 378.953125 270.582031 C 378.953125 289.578125 381.207031 307.511719 385.722656 324.492188 C 390.234375 341.351562 397 357.382812 406.027344 372.34375 C 415.050781 387.308594 425.738281 400.605469 438.207031 412.242188 C 450.675781 423.878906 464.804688 433.972656 480.597656 442.285156 C 512.300781 459.027344 548.164062 467.460938 587.941406 467.460938 C 602.074219 467.460938 616.203125 466.390625 630.335938 464.371094 C 644.464844 462.234375 658.597656 459.148438 672.726562 454.992188 C 686.855469 450.835938 700.15625 445.730469 712.625 439.792969 C 724.617188 434.09375 735.78125 427.5625 746.347656 420.082031 L 746.347656 279.488281 Z M 653.371094 273.550781 L 752.402344 273.550781 L 752.402344 423.285156 L 751.214844 424.238281 C 740.171875 432.191406 728.179688 439.199219 715.355469 445.371094 C 702.53125 451.546875 688.996094 456.652344 674.625 460.929688 C 660.257812 465.203125 645.773438 468.410156 631.402344 470.546875 C 617.035156 472.683594 602.546875 473.753906 588.179688 473.753906 C 547.449219 473.753906 510.757812 465.085938 478.105469 447.867188 C 461.71875 439.199219 447.230469 428.867188 434.40625 416.875 C 421.582031 404.882812 410.539062 391.105469 401.277344 375.667969 C 392.015625 360.234375 385.007812 343.847656 380.378906 326.273438 C 375.746094 308.816406 373.371094 290.292969 373.371094 270.9375 C 373.371094 251.460938 375.746094 233.058594 380.378906 215.601562 C 385.007812 198.148438 392.015625 181.640625 401.277344 166.203125 C 410.539062 150.765625 421.699219 137.113281 434.644531 125 C 447.585938 113.007812 462.3125 102.675781 478.816406 94.007812 C 495.320312 85.339844 512.894531 78.925781 531.539062 74.652344 C 550.183594 70.378906 569.773438 68.238281 590.554688 68.238281 C 608.605469 68.238281 625.824219 69.785156 642.210938 72.871094 C 658.476562 75.957031 673.914062 80.46875 688.402344 86.644531 C 702.886719 92.820312 716.1875 100.300781 728.300781 109.089844 C 740.410156 117.875 751.214844 128.085938 760.953125 139.605469 L 762.734375 141.742188 L 760.597656 143.644531 L 691.011719 206.101562 L 688.757812 208.121094 L 686.738281 205.984375 C 674.03125 191.972656 660.019531 181.523438 644.941406 174.515625 C 629.742188 167.511719 613.355469 164.066406 595.660156 164.066406 C 579.511719 164.066406 565.023438 166.441406 552.082031 171.308594 C 539.257812 176.179688 527.859375 183.421875 518.121094 193.039062 C 508.382812 202.660156 501.023438 214.058594 496.152344 226.882812 C 491.285156 239.824219 488.792969 254.429688 488.792969 270.816406 C 488.792969 281.269531 489.859375 291.003906 492.117188 300.265625 C 494.371094 309.410156 497.695312 318.078125 502.089844 326.273438 C 506.484375 334.347656 511.828125 341.589844 518.121094 347.882812 C 524.296875 354.175781 531.421875 359.640625 539.375 364.152344 C 547.332031 368.664062 556 372.109375 565.144531 374.363281 C 574.289062 376.621094 584.144531 377.808594 594.472656 377.808594 C 604.6875 377.808594 614.660156 376.738281 624.160156 374.71875 C 633.066406 372.820312 641.734375 369.96875 650.164062 366.289062 L 650.164062 273.785156 L 653.371094 273.785156 Z M 653.371094 273.550781 " fill-opacity="1" fill-rule="nonzero"/></g><g fill="#ffffff" fill-opacity="1"><g transform="translate(100.80023, 660.20098)"><g><path d="M 129.984375 -86.484375 L 167.390625 -86.484375 L 167.390625 -20.171875 C 158.160156 -13.691406 147.023438 -8.382812 133.984375 -4.25 C 120.953125 -0.125 108.523438 1.9375 96.703125 1.9375 C 70.785156 1.9375 49.160156 -6.359375 31.828125 -22.953125 C 14.492188 -39.554688 5.828125 -60.25 5.828125 -85.03125 C 5.828125 -109.65625 14.734375 -130.226562 32.546875 -146.75 C 50.367188 -163.269531 72.722656 -171.53125 99.609375 -171.53125 C 112.242188 -171.53125 124.796875 -169.257812 137.265625 -164.71875 C 149.734375 -160.1875 160.34375 -154.03125 169.09375 -146.25 L 144.796875 -116.859375 C 138.640625 -122.523438 131.507812 -127.019531 123.40625 -130.34375 C 115.3125 -133.664062 107.300781 -135.328125 99.375 -135.328125 C 85.4375 -135.328125 73.726562 -130.503906 64.25 -120.859375 C 54.78125 -111.222656 50.046875 -99.28125 50.046875 -85.03125 C 50.046875 -70.613281 54.820312 -58.546875 64.375 -48.828125 C 73.9375 -39.109375 85.765625 -34.25 99.859375 -34.25 C 108.921875 -34.25 118.960938 -37.003906 129.984375 -42.515625 Z M 129.984375 -86.484375 "/></g></g></g><g fill="#ffffff" fill-opacity="1"><g transform="translate(276.457509, 660.20098)"><g><path d="M 74.09375 -132.40625 C 96.769531 -132.40625 113.816406 -125.441406 125.234375 -111.515625 C 136.660156 -97.585938 141.644531 -78.472656 140.1875 -54.171875 L 48.109375 -54.171875 C 50.210938 -46.398438 53.9375 -40.410156 59.28125 -36.203125 C 64.625 -31.992188 71.179688 -29.890625 78.953125 -29.890625 C 90.941406 -29.890625 101.390625 -34.34375 110.296875 -43.25 L 132.40625 -21.625 C 118.3125 -6.238281 99.28125 1.453125 75.3125 1.453125 C 54.09375 1.453125 37.207031 -4.617188 24.65625 -16.765625 C 12.101562 -28.910156 5.828125 -45.023438 5.828125 -65.109375 C 5.828125 -85.359375 12.101562 -101.632812 24.65625 -113.9375 C 37.207031 -126.25 53.6875 -132.40625 74.09375 -132.40625 Z M 47.375 -76.765625 L 99.859375 -76.765625 C 99.859375 -84.703125 97.546875 -91.097656 92.921875 -95.953125 C 88.304688 -100.816406 82.195312 -103.25 74.59375 -103.25 C 67.457031 -103.25 61.457031 -100.859375 56.59375 -96.078125 C 51.738281 -91.304688 48.664062 -84.867188 47.375 -76.765625 Z M 47.375 -76.765625 "/></g></g></g><g fill="#ffffff" fill-opacity="1"><g transform="translate(417.857938, 660.20098)"><g><path d="M 102.53125 -132.890625 C 116.945312 -132.890625 128.523438 -128.3125 137.265625 -119.15625 C 146.015625 -110.007812 150.390625 -97.828125 150.390625 -82.609375 L 150.390625 0 L 108.59375 0 L 108.59375 -70.9375 C 108.59375 -78.550781 106.523438 -84.582031 102.390625 -89.03125 C 98.265625 -93.488281 92.640625 -95.71875 85.515625 -95.71875 C 78.066406 -95.71875 71.953125 -93.285156 67.171875 -88.421875 C 62.398438 -83.566406 59.609375 -77.171875 58.796875 -69.234375 L 58.796875 0 L 16.765625 0 L 16.765625 -130.953125 L 58.796875 -130.953125 L 58.796875 -109.578125 C 68.023438 -124.796875 82.601562 -132.566406 102.53125 -132.890625 Z M 102.53125 -132.890625 "/></g></g></g><g fill="#ffffff" fill-opacity="1"><g transform="translate(576.508283, 660.20098)"><g><path d="M 74.09375 -132.40625 C 96.769531 -132.40625 113.816406 -125.441406 125.234375 -111.515625 C 136.660156 -97.585938 141.644531 -78.472656 140.1875 -54.171875 L 48.109375 -54.171875 C 50.210938 -46.398438 53.9375 -40.410156 59.28125 -36.203125 C 64.625 -31.992188 71.179688 -29.890625 78.953125 -29.890625 C 90.941406 -29.890625 101.390625 -34.34375 110.296875 -43.25 L 132.40625 -21.625 C 118.3125 -6.238281 99.28125 1.453125 75.3125 1.453125 C 54.09375 1.453125 37.207031 -4.617188 24.65625 -16.765625 C 12.101562 -28.910156 5.828125 -45.023438 5.828125 -65.109375 C 5.828125 -85.359375 12.101562 -101.632812 24.65625 -113.9375 C 37.207031 -126.25 53.6875 -132.40625 74.09375 -132.40625 Z M 47.375 -76.765625 L 99.859375 -76.765625 C 99.859375 -84.703125 97.546875 -91.097656 92.921875 -95.953125 C 88.304688 -100.816406 82.195312 -103.25 74.59375 -103.25 C 67.457031 -103.25 61.457031 -100.859375 56.59375 -96.078125 C 51.738281 -91.304688 48.664062 -84.867188 47.375 -76.765625 Z M 47.375 -76.765625 "/></g></g></g><g fill="#ffffff" fill-opacity="1"><g transform="translate(717.908723, 660.20098)"><g><path d="M 63.65625 -132.890625 C 82.925781 -132.890625 100.90625 -127.953125 117.59375 -118.078125 L 103.25 -90.859375 C 87.050781 -99.609375 73.285156 -103.984375 61.953125 -103.984375 C 53.367188 -103.984375 49.078125 -100.988281 49.078125 -95 C 49.078125 -91.757812 51.425781 -89.046875 56.125 -86.859375 C 60.820312 -84.671875 66.570312 -82.6875 73.375 -80.90625 C 80.175781 -79.125 86.9375 -76.894531 93.65625 -74.21875 C 100.375 -71.550781 106.082031 -67.300781 110.78125 -61.46875 C 115.476562 -55.632812 117.828125 -48.507812 117.828125 -40.09375 C 117.828125 -26.96875 112.722656 -16.71875 102.515625 -9.34375 C 92.316406 -1.976562 79.039062 1.703125 62.6875 1.703125 C 39.519531 1.703125 19.921875 -4.453125 3.890625 -16.765625 L 17.25 -43.484375 C 32.632812 -32.628906 48.101562 -27.203125 63.65625 -27.203125 C 73.207031 -27.203125 77.984375 -30.203125 77.984375 -36.203125 C 77.984375 -39.597656 75.675781 -42.429688 71.0625 -44.703125 C 66.445312 -46.972656 60.816406 -49 54.171875 -50.78125 C 47.535156 -52.5625 40.894531 -54.785156 34.25 -57.453125 C 27.613281 -60.128906 21.988281 -64.300781 17.375 -69.96875 C 12.757812 -75.632812 10.453125 -82.757812 10.453125 -91.34375 C 10.453125 -104.46875 15.390625 -114.671875 25.265625 -121.953125 C 35.148438 -129.242188 47.945312 -132.890625 63.65625 -132.890625 Z M 63.65625 -132.890625 "/></g></g></g><g fill="#ffffff" fill-opacity="1"><g transform="translate(837.686037, 660.20098)"><g><path d="M 21.984375 -184.515625 C 26.117188 -188.648438 31.425781 -190.71875 37.90625 -190.71875 C 44.382812 -190.71875 49.6875 -188.648438 53.8125 -184.515625 C 57.945312 -180.390625 60.015625 -175.085938 60.015625 -168.609375 C 60.015625 -162.128906 57.945312 -156.78125 53.8125 -152.5625 C 49.6875 -148.351562 44.382812 -146.25 37.90625 -146.25 C 31.425781 -146.25 26.117188 -148.351562 21.984375 -152.5625 C 17.859375 -156.78125 15.796875 -162.128906 15.796875 -168.609375 C 15.796875 -175.085938 17.859375 -180.390625 21.984375 -184.515625 Z M 58.546875 0 L 16.765625 0 L 16.765625 -130.953125 L 58.546875 -130.953125 Z M 58.546875 0 "/></g></g></g><g fill="#ffffff" fill-opacity="1"><g transform="translate(908.386169, 660.20098)"><g><path d="M 63.65625 -132.890625 C 82.925781 -132.890625 100.90625 -127.953125 117.59375 -118.078125 L 103.25 -90.859375 C 87.050781 -99.609375 73.285156 -103.984375 61.953125 -103.984375 C 53.367188 -103.984375 49.078125 -100.988281 49.078125 -95 C 49.078125 -91.757812 51.425781 -89.046875 56.125 -86.859375 C 60.820312 -84.671875 66.570312 -82.6875 73.375 -80.90625 C 80.175781 -79.125 86.9375 -76.894531 93.65625 -74.21875 C 100.375 -71.550781 106.082031 -67.300781 110.78125 -61.46875 C 115.476562 -55.632812 117.828125 -48.507812 117.828125 -40.09375 C 117.828125 -26.96875 112.722656 -16.71875 102.515625 -9.34375 C 92.316406 -1.976562 79.039062 1.703125 62.6875 1.703125 C 39.519531 1.703125 19.921875 -4.453125 3.890625 -16.765625 L 17.25 -43.484375 C 32.632812 -32.628906 48.101562 -27.203125 63.65625 -27.203125 C 73.207031 -27.203125 77.984375 -30.203125 77.984375 -36.203125 C 77.984375 -39.597656 75.675781 -42.429688 71.0625 -44.703125 C 66.445312 -46.972656 60.816406 -49 54.171875 -50.78125 C 47.535156 -52.5625 40.894531 -54.785156 34.25 -57.453125 C 27.613281 -60.128906 21.988281 -64.300781 17.375 -69.96875 C 12.757812 -75.632812 10.453125 -82.757812 10.453125 -91.34375 C 10.453125 -104.46875 15.390625 -114.671875 25.265625 -121.953125 C 35.148438 -129.242188 47.945312 -132.890625 63.65625 -132.890625 Z M 63.65625 -132.890625 "/></g></g></g><path fill="#00dd52" d="M 837.644531 696.027344 L 1006.148438 696.027344 C 1021.78125 696.027344 1034.453125 708.699219 1034.453125 724.332031 L 1034.453125 780.941406 C 1034.453125 796.574219 1021.78125 809.246094 1006.148438 809.246094 L 837.644531 809.246094 C 822.011719 809.246094 809.339844 796.574219 809.339844 780.941406 L 809.339844 724.332031 C 809.339844 708.699219 822.011719 696.027344 837.644531 696.027344 Z M 837.644531 696.027344 " fill-opacity="1" fill-rule="nonzero"/><g fill="#ffffff" fill-opacity="1"><g transform="translate(849.850522, 774.630808)"><g><path d="M 25.0625 0.734375 C 21.9375 0.734375 19.035156 0.164062 16.359375 -0.96875 C 13.679688 -2.101562 11.367188 -3.65625 9.421875 -5.625 C 7.484375 -7.59375 5.960938 -9.914062 4.859375 -12.59375 C 3.765625 -15.269531 3.21875 -18.128906 3.21875 -21.171875 L 3.21875 -21.296875 C 3.21875 -24.335938 3.765625 -27.1875 4.859375 -29.84375 C 5.960938 -32.5 7.484375 -34.828125 9.421875 -36.828125 C 11.367188 -38.835938 13.703125 -40.421875 16.421875 -41.578125 C 19.140625 -42.734375 22.140625 -43.3125 25.421875 -43.3125 C 27.410156 -43.3125 29.222656 -43.148438 30.859375 -42.828125 C 32.503906 -42.503906 33.992188 -42.054688 35.328125 -41.484375 C 36.671875 -40.921875 37.910156 -40.234375 39.046875 -39.421875 C 40.179688 -38.609375 41.238281 -37.710938 42.21875 -36.734375 L 36.25 -29.859375 C 34.59375 -31.367188 32.898438 -32.546875 31.171875 -33.390625 C 29.453125 -34.242188 27.515625 -34.671875 25.359375 -34.671875 C 23.578125 -34.671875 21.925781 -34.328125 20.40625 -33.640625 C 18.882812 -32.953125 17.578125 -32 16.484375 -30.78125 C 15.390625 -29.5625 14.535156 -28.148438 13.921875 -26.546875 C 13.316406 -24.953125 13.015625 -23.238281 13.015625 -21.40625 L 13.015625 -21.296875 C 13.015625 -19.460938 13.316406 -17.734375 13.921875 -16.109375 C 14.535156 -14.492188 15.378906 -13.078125 16.453125 -11.859375 C 17.523438 -10.640625 18.820312 -9.675781 20.34375 -8.96875 C 21.863281 -8.257812 23.535156 -7.90625 25.359375 -7.90625 C 27.796875 -7.90625 29.851562 -8.347656 31.53125 -9.234375 C 33.21875 -10.128906 34.894531 -11.347656 36.5625 -12.890625 L 42.515625 -6.875 C 41.421875 -5.695312 40.285156 -4.640625 39.109375 -3.703125 C 37.929688 -2.773438 36.644531 -1.972656 35.25 -1.296875 C 33.851562 -0.628906 32.320312 -0.125 30.65625 0.21875 C 28.988281 0.5625 27.125 0.734375 25.0625 0.734375 Z M 25.0625 0.734375 "/></g></g></g><g fill="#ffffff" fill-opacity="1"><g transform="translate(895.95041, 774.630808)"><g><path d="M 5.109375 -42.578125 L 24.578125 -42.578125 C 29.972656 -42.578125 34.109375 -41.140625 36.984375 -38.265625 C 39.421875 -35.828125 40.640625 -32.582031 40.640625 -28.53125 L 40.640625 -28.40625 C 40.640625 -24.957031 39.796875 -22.148438 38.109375 -19.984375 C 36.421875 -17.816406 34.222656 -16.222656 31.515625 -15.203125 L 41.90625 0 L 30.96875 0 L 21.84375 -13.625 L 14.484375 -13.625 L 14.484375 0 L 5.109375 0 Z M 23.96875 -21.890625 C 26.28125 -21.890625 28.050781 -22.4375 29.28125 -23.53125 C 30.519531 -24.632812 31.140625 -26.097656 31.140625 -27.921875 L 31.140625 -28.046875 C 31.140625 -30.066406 30.488281 -31.582031 29.1875 -32.59375 C 27.894531 -33.613281 26.09375 -34.125 23.78125 -34.125 L 14.484375 -34.125 L 14.484375 -21.890625 Z M 23.96875 -21.890625 "/></g></g></g><g fill="#ffffff" fill-opacity="1"><g transform="translate(941.13804, 774.630808)"><g><path d="M 5.109375 -42.578125 L 15.203125 -42.578125 L 26.40625 -24.578125 L 37.59375 -42.578125 L 47.6875 -42.578125 L 47.6875 0 L 38.375 0 L 38.375 -27.796875 L 26.40625 -9.609375 L 26.15625 -9.609375 L 14.296875 -27.609375 L 14.296875 0 L 5.109375 0 Z M 5.109375 -42.578125 "/></g></g></g></svg>