<svg xmlns="http://www.w3.org/2000/svg" xmlns:xlink="http://www.w3.org/1999/xlink" width="1511" zoomAndPan="magnify" viewBox="0 0 1134 850.499975" height="1133" preserveAspectRatio="xMidYMid meet" version="1.0"><defs><g/><clipPath id="09b830f6ad"><path d="M 371 100.851562 L 759 100.851562 L 759 522.523438 L 371 522.523438 Z M 371 100.851562 " clip-rule="nonzero"/></clipPath></defs><g clip-path="url(#09b830f6ad)"><path fill="#5383ff" d="M 557.777344 193.59375 C 558.488281 193.59375 559.082031 193.59375 559.675781 193.710938 C 564.070312 181.125 568.9375 169.011719 574.28125 157.375 C 580.21875 144.3125 586.632812 131.960938 593.402344 120.207031 C 593.164062 119.96875 593.046875 119.851562 592.808594 119.613281 L 511.703125 180.171875 C 512.414062 181.597656 512.769531 183.261719 512.769531 185.042969 C 512.769531 185.515625 512.769531 185.875 512.652344 186.347656 L 547.800781 199.648438 C 549.703125 195.96875 553.5 193.59375 557.777344 193.59375 M 505.765625 227.554688 C 506.597656 225.296875 508.257812 223.277344 510.277344 221.972656 L 501.609375 196.085938 C 495.433594 196.085938 490.566406 191.097656 490.566406 184.921875 C 490.566406 184.6875 490.566406 184.328125 490.566406 184.09375 L 451.261719 169.128906 C 450.546875 170.082031 449.597656 171.03125 448.648438 171.742188 L 463.847656 215.085938 C 464.085938 215.085938 464.320312 215.085938 464.558594 215.085938 C 470.257812 215.085938 474.890625 219.242188 475.601562 224.703125 Z M 516.214844 220.191406 C 518.472656 220.191406 520.609375 220.902344 522.390625 222.089844 C 526.070312 219.121094 529.988281 216.390625 534.144531 214.015625 C 538.183594 211.640625 542.457031 209.503906 546.972656 207.605469 C 546.734375 206.890625 546.613281 206.179688 546.613281 205.347656 L 510.515625 191.691406 C 509.683594 192.878906 508.613281 193.828125 507.308594 194.542969 L 515.976562 220.308594 Z M 387.253906 252.847656 C 388.796875 253.679688 390.222656 254.867188 391.292969 256.292969 L 453.636719 228.621094 C 453.515625 227.792969 453.398438 227.078125 453.398438 226.246094 C 453.398438 222.449219 455.296875 219.121094 458.148438 217.105469 L 442.949219 173.761719 C 442.710938 173.761719 442.472656 173.761719 442.234375 173.761719 C 440.097656 173.761719 437.960938 173.167969 436.296875 171.980469 C 424.660156 183.140625 414.6875 195.730469 406.136719 209.859375 C 398.0625 223.398438 391.765625 237.648438 387.253906 252.847656 Z M 394.261719 386.082031 C 396.042969 386.082031 397.703125 386.4375 399.128906 387.152344 L 445.441406 334.425781 C 444.253906 332.644531 443.660156 330.628906 443.660156 328.253906 C 443.660156 326.351562 444.136719 324.570312 444.964844 323.027344 L 387.492188 272.679688 C 385.949219 273.507812 384.167969 273.984375 382.386719 273.984375 C 380.25 285.976562 379.179688 298.566406 379.179688 311.628906 C 379.179688 330.628906 381.4375 348.558594 385.949219 365.539062 C 387.847656 372.664062 390.105469 379.550781 392.835938 386.320312 C 393.3125 386.082031 393.785156 386.082031 394.261719 386.082031 Z M 454.347656 390.949219 C 455.179688 387.507812 457.554688 384.65625 460.761719 383.234375 L 453.992188 339.414062 C 452.566406 339.296875 451.140625 338.941406 449.953125 338.347656 L 403.640625 391.070312 C 404.117188 391.902344 404.59375 392.730469 404.828125 393.683594 Z M 442.949219 457.332031 C 444.609375 456.023438 446.746094 455.195312 449.003906 455.074219 L 460.046875 403.300781 C 457.433594 401.996094 455.535156 399.621094 454.585938 396.886719 L 405.066406 399.621094 C 404.59375 401.875 403.40625 404.011719 401.625 405.558594 C 403.046875 408.167969 404.472656 410.78125 406.015625 413.277344 C 415.042969 428.238281 425.730469 441.539062 438.199219 453.175781 C 439.859375 454.480469 441.402344 455.90625 442.949219 457.332031 Z M 500.066406 445.335938 C 500.066406 444.863281 499.945312 444.507812 499.945312 444.03125 C 499.945312 438.332031 504.222656 433.699219 509.683594 432.988281 L 512.175781 400.925781 C 509.328125 399.621094 507.070312 397.125 506.121094 394.039062 L 475.960938 395.699219 C 474.890625 400.570312 470.734375 404.25 465.746094 404.488281 L 454.703125 456.261719 C 456.246094 457.09375 457.671875 458.28125 458.742188 459.824219 Z M 497.570312 491.175781 C 499.234375 488.207031 502.085938 486.066406 505.527344 485.59375 L 508.019531 454.835938 C 505.765625 454.125 503.746094 452.820312 502.320312 450.917969 L 460.878906 465.523438 C 460.878906 465.761719 460.878906 466 460.878906 466.238281 C 460.878906 467.78125 460.523438 469.207031 460.046875 470.632812 C 466.578125 475.144531 473.585938 479.417969 480.828125 483.21875 C 486.289062 486.066406 491.871094 488.679688 497.570312 491.175781 Z M 551.125 450.800781 C 552.433594 448.78125 554.453125 447.238281 556.707031 446.40625 C 554.570312 439.042969 552.550781 431.917969 550.769531 424.675781 C 550.53125 424.675781 550.414062 424.675781 550.175781 424.675781 C 544.003906 424.675781 539.015625 419.6875 539.015625 413.511719 C 539.015625 412.683594 539.132812 411.96875 539.253906 411.257812 C 538.421875 410.78125 537.472656 410.308594 536.640625 409.832031 C 531.652344 406.980469 527.019531 403.894531 522.628906 400.332031 C 521.320312 401.164062 519.777344 401.636719 518.113281 401.875 L 515.621094 433.820312 C 519.421875 435.480469 522.035156 439.164062 522.269531 443.554688 Z M 570.125 507.800781 C 571.195312 504.710938 573.570312 502.21875 576.65625 501.03125 C 571.90625 489.75 567.515625 478.585938 563.714844 467.664062 C 562.644531 468.019531 561.578125 468.136719 560.507812 468.136719 C 554.332031 468.136719 549.347656 463.148438 549.347656 456.976562 L 549.347656 456.5 L 520.964844 449.375 C 519.539062 451.988281 517.046875 454.007812 514.078125 454.835938 L 511.582031 486.1875 C 515.738281 487.847656 518.589844 491.886719 518.589844 496.519531 C 518.589844 497.230469 518.472656 497.941406 518.351562 498.535156 C 522.152344 499.722656 525.953125 500.675781 529.753906 501.625 C 542.695312 504.832031 556.113281 506.847656 570.125 507.800781 Z M 486.171875 278.851562 C 486.289062 278.851562 486.527344 278.851562 486.648438 278.851562 C 487.714844 274.222656 489.140625 269.828125 490.683594 265.554688 C 494.601562 255.222656 499.945312 245.839844 506.832031 237.410156 C 506.003906 236.222656 505.527344 234.796875 505.289062 233.371094 L 474.773438 230.523438 C 473.941406 232.421875 472.632812 234.085938 470.851562 235.273438 Z M 478.335938 297.023438 C 476.789062 295.121094 475.839844 292.628906 475.839844 290.015625 C 475.839844 286.214844 477.742188 282.890625 480.589844 280.871094 L 465.273438 237.292969 C 465.035156 237.292969 464.796875 237.292969 464.558594 237.292969 C 461.355469 237.292969 458.503906 235.984375 456.484375 233.847656 L 393.429688 261.753906 C 393.429688 262.109375 393.429688 262.347656 393.429688 262.703125 C 393.429688 264.839844 392.835938 266.742188 391.886719 268.402344 L 449.121094 318.632812 C 450.785156 317.683594 452.804688 317.089844 454.824219 317.089844 C 456.605469 317.089844 458.265625 317.445312 459.691406 318.160156 Z M 483.320312 300.585938 L 483.085938 300.464844 L 464.085938 322.195312 C 465.273438 323.976562 465.867188 325.996094 465.867188 328.253906 C 465.867188 332.644531 463.371094 336.328125 459.808594 338.226562 L 466.578125 382.402344 C 470.851562 382.875 474.414062 385.84375 475.722656 389.765625 L 506.121094 388.101562 C 506.359375 387.03125 506.835938 386.082031 507.308594 385.25 C 503.507812 380.5 500.066406 375.394531 496.976562 369.8125 C 492.226562 361.265625 488.785156 352.121094 486.410156 342.382812 C 484.035156 332.644531 482.847656 322.433594 482.847656 311.507812 C 482.964844 307.828125 483.085938 304.144531 483.320312 300.585938 Z M 501.492188 137.78125 C 498.996094 136.949219 496.859375 135.285156 495.433594 133.148438 C 490.683594 135.167969 485.933594 137.425781 481.304688 139.917969 C 470.972656 145.261719 461.355469 151.4375 452.449219 158.207031 C 453.042969 159.511719 453.398438 161.054688 453.398438 162.597656 C 453.398438 162.957031 453.398438 163.3125 453.398438 163.667969 L 492.585938 178.511719 C 494.367188 176.015625 497.097656 174.234375 500.304688 173.878906 Z M 515.859375 125.550781 C 515.976562 126.023438 515.976562 126.617188 515.976562 127.09375 C 515.976562 132.316406 512.296875 136.710938 507.425781 137.898438 L 506.242188 174.59375 C 506.835938 174.828125 507.308594 175.1875 507.902344 175.421875 L 589.484375 114.507812 C 563.121094 114.742188 538.539062 118.425781 515.859375 125.550781 Z M 653.367188 317.207031 L 749.4375 317.207031 L 749.4375 462.4375 C 727.46875 478.230469 702.175781 490.222656 673.675781 498.65625 C 646.363281 506.730469 619.050781 510.886719 591.859375 511.242188 L 591.859375 511.363281 C 591.859375 517.535156 586.871094 522.523438 580.695312 522.523438 C 575.351562 522.523438 570.839844 518.722656 569.769531 513.738281 C 555.402344 512.785156 541.628906 510.648438 528.328125 507.441406 C 524.050781 506.375 519.777344 505.1875 515.621094 504 C 513.601562 506.253906 510.632812 507.679688 507.308594 507.679688 C 501.253906 507.679688 496.382812 502.929688 496.148438 496.992188 C 489.972656 494.378906 483.914062 491.53125 477.976562 488.441406 C 470.378906 484.40625 463.136719 480.011719 456.246094 475.261719 C 454.464844 476.570312 452.210938 477.398438 449.714844 477.398438 C 443.542969 477.398438 438.554688 472.414062 438.554688 466.238281 C 438.554688 464.8125 438.792969 463.386719 439.386719 462.082031 C 437.605469 460.539062 435.941406 458.992188 434.277344 457.449219 C 421.453125 445.457031 410.410156 431.683594 401.148438 416.246094 C 399.484375 413.511719 397.941406 410.902344 396.515625 408.167969 C 395.804688 408.289062 395.09375 408.40625 394.378906 408.40625 C 388.203125 408.40625 383.21875 403.417969 383.21875 397.246094 C 383.21875 393.683594 384.878906 390.59375 387.375 388.578125 C 384.523438 381.570312 382.148438 374.328125 380.25 366.964844 C 375.617188 349.507812 373.242188 330.984375 373.242188 311.628906 C 373.242188 298.089844 374.3125 285.027344 376.566406 272.441406 C 373.242188 270.539062 371.105469 266.976562 371.105469 262.820312 C 371.105469 257.003906 375.617188 252.136719 381.4375 251.660156 C 386.066406 235.867188 392.597656 220.902344 401.148438 206.773438 C 409.9375 192.167969 420.386719 179.105469 432.378906 167.585938 C 431.667969 166.042969 431.191406 164.378906 431.191406 162.597656 C 431.191406 156.425781 436.179688 151.4375 442.355469 151.4375 C 444.730469 151.4375 446.984375 152.148438 448.886719 153.574219 C 458.027344 146.566406 468.003906 140.273438 478.691406 134.691406 C 483.679688 132.082031 488.664062 129.707031 493.773438 127.566406 L 493.773438 127.332031 C 493.773438 121.15625 498.757812 116.167969 504.933594 116.167969 C 508.378906 116.167969 511.464844 117.710938 513.601562 120.207031 C 537.351562 112.605469 562.882812 108.925781 590.3125 108.804688 C 591.621094 104.175781 595.894531 100.851562 601 100.851562 C 607.175781 100.851562 612.164062 105.835938 612.164062 112.011719 C 612.164062 112.25 612.164062 112.367188 612.164062 112.605469 C 639.355469 114.625 664.414062 120.324219 686.972656 129.941406 C 715.472656 142.054688 739.34375 159.394531 758.34375 182.074219 L 689.230469 244.652344 C 663.226562 216.152344 632.113281 201.785156 595.894531 201.785156 C 586.394531 201.785156 577.488281 202.617188 569.058594 204.28125 C 569.058594 204.398438 569.058594 204.636719 569.058594 204.753906 C 569.058594 210.929688 564.070312 215.917969 557.894531 215.917969 C 554.925781 215.917969 552.195312 214.730469 550.175781 212.828125 C 545.664062 214.609375 541.390625 216.746094 537.234375 219.121094 C 533.433594 221.378906 529.871094 223.871094 526.425781 226.605469 C 527.140625 228.027344 527.496094 229.691406 527.496094 231.355469 C 527.496094 237.527344 522.507812 242.515625 516.332031 242.515625 C 514.550781 242.515625 512.890625 242.160156 511.464844 241.328125 C 505.050781 249.167969 500.066406 257.953125 496.382812 267.570312 C 494.839844 271.609375 493.535156 275.882812 492.464844 280.160156 C 495.910156 282.058594 498.164062 285.742188 498.164062 289.898438 C 498.164062 295.242188 494.367188 299.753906 489.378906 300.820312 C 489.140625 304.265625 489.023438 307.828125 489.023438 311.390625 C 489.023438 321.839844 490.089844 331.578125 492.347656 340.839844 C 494.601562 349.984375 497.929688 358.652344 502.320312 366.84375 C 505.050781 371.953125 508.257812 376.582031 511.703125 380.976562 C 513.246094 380.144531 515.027344 379.671875 517.046875 379.671875 C 523.222656 379.671875 528.207031 384.65625 528.207031 390.832031 C 528.207031 392.730469 527.734375 394.511719 526.902344 396.058594 C 530.820312 399.144531 535.097656 402.113281 539.609375 404.605469 C 540.441406 405.082031 541.152344 405.4375 541.984375 405.914062 C 544.003906 403.65625 546.96875 402.351562 550.175781 402.351562 C 556.351562 402.351562 561.339844 407.339844 561.339844 413.511719 C 561.339844 414.582031 561.21875 415.652344 560.863281 416.71875 C 571.3125 419.6875 582.59375 421.230469 594.707031 421.230469 C 615.605469 421.230469 635.199219 417.074219 653.488281 408.644531 L 653.488281 317.207031 Z M 653.367188 317.207031 " fill-opacity="1" fill-rule="evenodd"/></g><path fill="#5383ff" d="M 746.46875 320.175781 L 656.335938 320.175781 L 656.335938 410.542969 L 654.554688 411.375 C 645.175781 415.652344 635.558594 418.855469 625.464844 420.996094 C 615.488281 423.132812 605.15625 424.199219 594.46875 424.199219 C 583.664062 424.199219 573.332031 423.011719 563.714844 420.636719 C 553.976562 418.261719 544.953125 414.582031 536.519531 409.832031 C 528.089844 405.082031 520.488281 399.261719 513.957031 392.613281 C 507.308594 385.964844 501.726562 378.246094 496.976562 369.695312 C 492.226562 361.144531 488.785156 352 486.410156 342.265625 C 484.035156 332.527344 482.847656 322.316406 482.847656 311.390625 C 482.847656 294.410156 485.460938 279.089844 490.566406 265.433594 C 495.789062 251.660156 503.507812 239.667969 513.839844 229.453125 C 524.171875 219.121094 536.164062 211.523438 549.941406 206.296875 C 563.59375 201.191406 578.796875 198.578125 595.539062 198.578125 C 614.0625 198.578125 631.28125 202.261719 647.3125 209.503906 C 662.394531 216.390625 676.40625 226.605469 689.113281 240.140625 L 753.949219 181.480469 C 745.042969 171.148438 735.1875 162.125 724.261719 154.050781 C 712.503906 145.5 699.679688 138.253906 685.667969 132.316406 C 671.65625 126.382812 656.574219 121.867188 640.664062 118.898438 C 624.75 115.929688 607.886719 114.386719 590.195312 114.386719 C 569.890625 114.386719 550.652344 116.523438 532.484375 120.679688 C 514.316406 124.835938 497.214844 131.128906 481.183594 139.5625 C 465.152344 147.992188 450.902344 157.96875 438.316406 169.605469 C 425.847656 181.242188 415.042969 194.542969 406.015625 209.503906 C 396.992188 224.464844 390.222656 240.378906 385.710938 257.359375 C 381.199219 274.339844 378.941406 292.273438 378.941406 311.269531 C 378.941406 330.269531 381.199219 348.203125 385.710938 365.183594 C 390.222656 382.046875 396.992188 398.074219 406.015625 413.039062 C 415.042969 428 425.730469 441.300781 438.199219 452.9375 C 450.667969 464.574219 464.796875 474.667969 480.589844 482.980469 C 512.296875 499.722656 548.160156 508.15625 587.9375 508.15625 C 602.070312 508.15625 616.199219 507.085938 630.332031 505.066406 C 644.460938 502.929688 658.59375 499.84375 672.726562 495.6875 C 686.855469 491.53125 700.15625 486.425781 712.625 480.488281 C 724.617188 474.789062 735.78125 468.257812 746.347656 460.773438 L 746.347656 320.175781 Z M 653.367188 314.238281 L 752.40625 314.238281 L 752.40625 463.980469 L 751.21875 464.929688 C 740.171875 472.886719 728.179688 479.894531 715.355469 486.066406 C 702.53125 492.242188 688.992188 497.347656 674.625 501.625 C 660.257812 505.898438 645.769531 509.105469 631.402344 511.242188 C 617.03125 513.378906 602.542969 514.449219 588.175781 514.449219 C 547.445312 514.449219 510.753906 505.78125 478.097656 488.5625 C 461.710938 479.894531 447.222656 469.5625 434.398438 457.570312 C 421.574219 445.574219 410.53125 431.800781 401.265625 416.363281 C 392.003906 400.925781 385 384.539062 380.367188 366.964844 C 375.734375 349.507812 373.363281 330.984375 373.363281 311.628906 C 373.363281 292.152344 375.734375 273.746094 380.367188 256.289062 C 385 238.835938 392.003906 222.328125 401.265625 206.890625 C 410.53125 191.453125 421.691406 177.796875 434.636719 165.6875 C 447.578125 153.691406 462.304688 143.363281 478.808594 134.691406 C 495.316406 126.023438 512.890625 119.613281 531.535156 115.335938 C 550.175781 111.0625 569.769531 108.925781 590.550781 108.925781 C 608.601562 108.925781 625.820312 110.46875 642.207031 113.554688 C 658.476562 116.644531 673.914062 121.15625 688.398438 127.332031 C 702.886719 133.503906 716.1875 140.988281 728.296875 149.773438 C 740.410156 158.5625 751.21875 168.773438 760.953125 180.292969 L 762.734375 182.429688 L 760.597656 184.328125 L 691.011719 246.792969 L 688.753906 248.808594 L 686.738281 246.671875 C 674.03125 232.660156 660.019531 222.210938 644.9375 215.203125 C 629.738281 208.199219 613.351562 204.753906 595.65625 204.753906 C 579.507812 204.753906 565.019531 207.128906 552.078125 212 C 539.253906 216.867188 527.851562 224.109375 518.113281 233.730469 C 508.378906 243.347656 501.015625 254.746094 496.148438 267.570312 C 491.277344 280.515625 488.785156 295.121094 488.785156 311.507812 C 488.785156 321.957031 489.851562 331.695312 492.109375 340.957031 C 494.367188 350.101562 497.691406 358.769531 502.085938 366.964844 C 506.476562 375.039062 511.820312 382.28125 518.113281 388.578125 C 524.289062 394.871094 531.414062 400.332031 539.371094 404.84375 C 547.328125 409.355469 555.996094 412.800781 565.140625 415.058594 C 574.28125 417.3125 584.140625 418.5 594.46875 418.5 C 604.683594 418.5 614.65625 417.433594 624.15625 415.414062 C 633.0625 413.511719 641.730469 410.664062 650.164062 406.980469 L 650.164062 314.476562 L 653.367188 314.476562 Z M 653.367188 314.238281 " fill-opacity="1" fill-rule="nonzero"/><g fill="#ffffff" fill-opacity="1"><g transform="translate(100.80023, 700.885667)"><g><path d="M 129.984375 -86.484375 L 167.390625 -86.484375 L 167.390625 -20.171875 C 158.160156 -13.691406 147.023438 -8.382812 133.984375 -4.25 C 120.953125 -0.125 108.523438 1.9375 96.703125 1.9375 C 70.785156 1.9375 49.160156 -6.359375 31.828125 -22.953125 C 14.492188 -39.554688 5.828125 -60.25 5.828125 -85.03125 C 5.828125 -109.65625 14.734375 -130.226562 32.546875 -146.75 C 50.367188 -163.269531 72.722656 -171.53125 99.609375 -171.53125 C 112.242188 -171.53125 124.796875 -169.257812 137.265625 -164.71875 C 149.734375 -160.1875 160.34375 -154.03125 169.09375 -146.25 L 144.796875 -116.859375 C 138.640625 -122.523438 131.507812 -127.019531 123.40625 -130.34375 C 115.3125 -133.664062 107.300781 -135.328125 99.375 -135.328125 C 85.4375 -135.328125 73.726562 -130.503906 64.25 -120.859375 C 54.78125 -111.222656 50.046875 -99.28125 50.046875 -85.03125 C 50.046875 -70.613281 54.820312 -58.546875 64.375 -48.828125 C 73.9375 -39.109375 85.765625 -34.25 99.859375 -34.25 C 108.921875 -34.25 118.960938 -37.003906 129.984375 -42.515625 Z M 129.984375 -86.484375 "/></g></g></g><g fill="#ffffff" fill-opacity="1"><g transform="translate(276.457509, 700.885667)"><g><path d="M 74.09375 -132.40625 C 96.769531 -132.40625 113.816406 -125.441406 125.234375 -111.515625 C 136.660156 -97.585938 141.644531 -78.472656 140.1875 -54.171875 L 48.109375 -54.171875 C 50.210938 -46.398438 53.9375 -40.410156 59.28125 -36.203125 C 64.625 -31.992188 71.179688 -29.890625 78.953125 -29.890625 C 90.941406 -29.890625 101.390625 -34.34375 110.296875 -43.25 L 132.40625 -21.625 C 118.3125 -6.238281 99.28125 1.453125 75.3125 1.453125 C 54.09375 1.453125 37.207031 -4.617188 24.65625 -16.765625 C 12.101562 -28.910156 5.828125 -45.023438 5.828125 -65.109375 C 5.828125 -85.359375 12.101562 -101.632812 24.65625 -113.9375 C 37.207031 -126.25 53.6875 -132.40625 74.09375 -132.40625 Z M 47.375 -76.765625 L 99.859375 -76.765625 C 99.859375 -84.703125 97.546875 -91.097656 92.921875 -95.953125 C 88.304688 -100.816406 82.195312 -103.25 74.59375 -103.25 C 67.457031 -103.25 61.457031 -100.859375 56.59375 -96.078125 C 51.738281 -91.304688 48.664062 -84.867188 47.375 -76.765625 Z M 47.375 -76.765625 "/></g></g></g><g fill="#ffffff" fill-opacity="1"><g transform="translate(417.857938, 700.885667)"><g><path d="M 102.53125 -132.890625 C 116.945312 -132.890625 128.523438 -128.3125 137.265625 -119.15625 C 146.015625 -110.007812 150.390625 -97.828125 150.390625 -82.609375 L 150.390625 0 L 108.59375 0 L 108.59375 -70.9375 C 108.59375 -78.550781 106.523438 -84.582031 102.390625 -89.03125 C 98.265625 -93.488281 92.640625 -95.71875 85.515625 -95.71875 C 78.066406 -95.71875 71.953125 -93.285156 67.171875 -88.421875 C 62.398438 -83.566406 59.609375 -77.171875 58.796875 -69.234375 L 58.796875 0 L 16.765625 0 L 16.765625 -130.953125 L 58.796875 -130.953125 L 58.796875 -109.578125 C 68.023438 -124.796875 82.601562 -132.566406 102.53125 -132.890625 Z M 102.53125 -132.890625 "/></g></g></g><g fill="#ffffff" fill-opacity="1"><g transform="translate(576.508283, 700.885667)"><g><path d="M 74.09375 -132.40625 C 96.769531 -132.40625 113.816406 -125.441406 125.234375 -111.515625 C 136.660156 -97.585938 141.644531 -78.472656 140.1875 -54.171875 L 48.109375 -54.171875 C 50.210938 -46.398438 53.9375 -40.410156 59.28125 -36.203125 C 64.625 -31.992188 71.179688 -29.890625 78.953125 -29.890625 C 90.941406 -29.890625 101.390625 -34.34375 110.296875 -43.25 L 132.40625 -21.625 C 118.3125 -6.238281 99.28125 1.453125 75.3125 1.453125 C 54.09375 1.453125 37.207031 -4.617188 24.65625 -16.765625 C 12.101562 -28.910156 5.828125 -45.023438 5.828125 -65.109375 C 5.828125 -85.359375 12.101562 -101.632812 24.65625 -113.9375 C 37.207031 -126.25 53.6875 -132.40625 74.09375 -132.40625 Z M 47.375 -76.765625 L 99.859375 -76.765625 C 99.859375 -84.703125 97.546875 -91.097656 92.921875 -95.953125 C 88.304688 -100.816406 82.195312 -103.25 74.59375 -103.25 C 67.457031 -103.25 61.457031 -100.859375 56.59375 -96.078125 C 51.738281 -91.304688 48.664062 -84.867188 47.375 -76.765625 Z M 47.375 -76.765625 "/></g></g></g><g fill="#ffffff" fill-opacity="1"><g transform="translate(717.908723, 700.885667)"><g><path d="M 63.65625 -132.890625 C 82.925781 -132.890625 100.90625 -127.953125 117.59375 -118.078125 L 103.25 -90.859375 C 87.050781 -99.609375 73.285156 -103.984375 61.953125 -103.984375 C 53.367188 -103.984375 49.078125 -100.988281 49.078125 -95 C 49.078125 -91.757812 51.425781 -89.046875 56.125 -86.859375 C 60.820312 -84.671875 66.570312 -82.6875 73.375 -80.90625 C 80.175781 -79.125 86.9375 -76.894531 93.65625 -74.21875 C 100.375 -71.550781 106.082031 -67.300781 110.78125 -61.46875 C 115.476562 -55.632812 117.828125 -48.507812 117.828125 -40.09375 C 117.828125 -26.96875 112.722656 -16.71875 102.515625 -9.34375 C 92.316406 -1.976562 79.039062 1.703125 62.6875 1.703125 C 39.519531 1.703125 19.921875 -4.453125 3.890625 -16.765625 L 17.25 -43.484375 C 32.632812 -32.628906 48.101562 -27.203125 63.65625 -27.203125 C 73.207031 -27.203125 77.984375 -30.203125 77.984375 -36.203125 C 77.984375 -39.597656 75.675781 -42.429688 71.0625 -44.703125 C 66.445312 -46.972656 60.816406 -49 54.171875 -50.78125 C 47.535156 -52.5625 40.894531 -54.785156 34.25 -57.453125 C 27.613281 -60.128906 21.988281 -64.300781 17.375 -69.96875 C 12.757812 -75.632812 10.453125 -82.757812 10.453125 -91.34375 C 10.453125 -104.46875 15.390625 -114.671875 25.265625 -121.953125 C 35.148438 -129.242188 47.945312 -132.890625 63.65625 -132.890625 Z M 63.65625 -132.890625 "/></g></g></g><g fill="#ffffff" fill-opacity="1"><g transform="translate(837.686037, 700.885667)"><g><path d="M 21.984375 -184.515625 C 26.117188 -188.648438 31.425781 -190.71875 37.90625 -190.71875 C 44.382812 -190.71875 49.6875 -188.648438 53.8125 -184.515625 C 57.945312 -180.390625 60.015625 -175.085938 60.015625 -168.609375 C 60.015625 -162.128906 57.945312 -156.78125 53.8125 -152.5625 C 49.6875 -148.351562 44.382812 -146.25 37.90625 -146.25 C 31.425781 -146.25 26.117188 -148.351562 21.984375 -152.5625 C 17.859375 -156.78125 15.796875 -162.128906 15.796875 -168.609375 C 15.796875 -175.085938 17.859375 -180.390625 21.984375 -184.515625 Z M 58.546875 0 L 16.765625 0 L 16.765625 -130.953125 L 58.546875 -130.953125 Z M 58.546875 0 "/></g></g></g><g fill="#ffffff" fill-opacity="1"><g transform="translate(908.386169, 700.885667)"><g><path d="M 63.65625 -132.890625 C 82.925781 -132.890625 100.90625 -127.953125 117.59375 -118.078125 L 103.25 -90.859375 C 87.050781 -99.609375 73.285156 -103.984375 61.953125 -103.984375 C 53.367188 -103.984375 49.078125 -100.988281 49.078125 -95 C 49.078125 -91.757812 51.425781 -89.046875 56.125 -86.859375 C 60.820312 -84.671875 66.570312 -82.6875 73.375 -80.90625 C 80.175781 -79.125 86.9375 -76.894531 93.65625 -74.21875 C 100.375 -71.550781 106.082031 -67.300781 110.78125 -61.46875 C 115.476562 -55.632812 117.828125 -48.507812 117.828125 -40.09375 C 117.828125 -26.96875 112.722656 -16.71875 102.515625 -9.34375 C 92.316406 -1.976562 79.039062 1.703125 62.6875 1.703125 C 39.519531 1.703125 19.921875 -4.453125 3.890625 -16.765625 L 17.25 -43.484375 C 32.632812 -32.628906 48.101562 -27.203125 63.65625 -27.203125 C 73.207031 -27.203125 77.984375 -30.203125 77.984375 -36.203125 C 77.984375 -39.597656 75.675781 -42.429688 71.0625 -44.703125 C 66.445312 -46.972656 60.816406 -49 54.171875 -50.78125 C 47.535156 -52.5625 40.894531 -54.785156 34.25 -57.453125 C 27.613281 -60.128906 21.988281 -64.300781 17.375 -69.96875 C 12.757812 -75.632812 10.453125 -82.757812 10.453125 -91.34375 C 10.453125 -104.46875 15.390625 -114.671875 25.265625 -121.953125 C 35.148438 -129.242188 47.945312 -132.890625 63.65625 -132.890625 Z M 63.65625 -132.890625 "/></g></g></g></svg>