<svg xmlns="http://www.w3.org/2000/svg" xmlns:xlink="http://www.w3.org/1999/xlink" width="1080" zoomAndPan="magnify" viewBox="0 0 810 809.999993" height="1080" preserveAspectRatio="xMidYMid meet" version="1.0"><defs><clipPath id="16731d8185"><path d="M 32.378906 4.332031 L 769 4.332031 L 769 805.332031 L 32.378906 805.332031 Z M 32.378906 4.332031 " clip-rule="nonzero"/></clipPath><clipPath id="8ae1f655a0"><path d="M 37 19 L 777.878906 19 L 777.878906 791 L 37 791 Z M 37 19 " clip-rule="nonzero"/></clipPath></defs><g clip-path="url(#16731d8185)"><path fill="#5383ff" d="M 387.625 180.574219 C 388.976562 180.574219 390.105469 180.574219 391.234375 180.800781 C 399.582031 156.878906 408.835938 133.863281 418.992188 111.746094 C 430.273438 86.925781 442.460938 63.453125 455.320312 41.113281 C 454.871094 40.664062 454.644531 40.4375 454.195312 39.984375 L 300.066406 155.074219 C 301.421875 157.78125 302.097656 160.941406 302.097656 164.328125 C 302.097656 165.230469 302.097656 165.90625 301.871094 166.808594 L 368.667969 192.082031 C 372.277344 185.085938 379.5 180.574219 387.625 180.574219 M 288.78125 245.113281 C 290.363281 240.824219 293.523438 236.988281 297.359375 234.507812 L 280.882812 185.3125 C 269.148438 185.3125 259.898438 175.835938 259.898438 164.101562 C 259.898438 163.648438 259.898438 162.972656 259.898438 162.519531 L 185.203125 134.085938 C 183.851562 135.894531 182.042969 137.699219 180.238281 139.050781 L 209.125 221.417969 C 209.574219 221.417969 210.027344 221.417969 210.476562 221.417969 C 221.308594 221.417969 230.109375 229.316406 231.464844 239.699219 Z M 308.640625 231.121094 C 312.929688 231.121094 316.992188 232.476562 320.375 234.734375 C 327.371094 229.089844 334.816406 223.902344 342.714844 219.386719 C 350.390625 214.875 358.511719 210.8125 367.085938 207.203125 C 366.636719 205.847656 366.410156 204.496094 366.410156 202.914062 L 297.808594 176.964844 C 296.230469 179.21875 294.199219 181.023438 291.714844 182.378906 L 308.191406 231.347656 Z M 63.570312 293.179688 C 66.503906 294.757812 69.214844 297.015625 71.246094 299.722656 L 189.71875 247.144531 C 189.492188 245.566406 189.265625 244.210938 189.265625 242.632812 C 189.265625 235.410156 192.875 229.089844 198.292969 225.253906 L 169.40625 142.886719 C 168.957031 142.886719 168.503906 142.886719 168.054688 142.886719 C 163.992188 142.886719 159.929688 141.761719 156.769531 139.503906 C 134.65625 160.714844 115.699219 184.636719 99.453125 211.488281 C 84.105469 237.214844 72.148438 264.292969 63.570312 293.179688 Z M 76.886719 546.371094 C 80.269531 546.371094 83.429688 547.050781 86.136719 548.402344 L 174.144531 448.210938 C 171.890625 444.824219 170.761719 440.988281 170.761719 436.476562 C 170.761719 432.863281 171.664062 429.480469 173.242188 426.546875 L 64.023438 330.863281 C 61.089844 332.445312 57.703125 333.347656 54.320312 333.347656 C 50.257812 356.140625 48.226562 380.058594 48.226562 404.882812 C 48.226562 440.988281 52.515625 475.0625 61.089844 507.332031 C 64.699219 520.875 68.988281 533.960938 74.179688 546.824219 C 75.082031 546.371094 75.984375 546.371094 76.886719 546.371094 Z M 191.070312 555.625 C 192.652344 549.082031 197.164062 543.664062 203.257812 540.957031 L 190.394531 457.6875 C 187.6875 457.460938 184.976562 456.785156 182.722656 455.65625 L 94.714844 555.851562 C 95.617188 557.429688 96.519531 559.011719 96.96875 560.816406 Z M 169.40625 681.769531 C 172.566406 679.289062 176.628906 677.707031 180.917969 677.484375 L 201.902344 579.09375 C 196.9375 576.613281 193.328125 572.097656 191.523438 566.910156 L 97.421875 572.097656 C 96.519531 576.386719 94.261719 580.449219 90.875 583.382812 C 93.585938 588.347656 96.292969 593.3125 99.226562 598.050781 C 116.375 626.484375 136.6875 651.757812 160.382812 673.871094 C 163.539062 676.355469 166.472656 679.0625 169.40625 681.769531 Z M 277.949219 658.980469 C 277.949219 658.074219 277.726562 657.398438 277.726562 656.496094 C 277.726562 645.664062 285.847656 636.863281 296.230469 635.511719 L 300.96875 574.582031 C 295.554688 572.097656 291.265625 567.359375 289.460938 561.492188 L 232.140625 564.652344 C 230.109375 573.902344 222.210938 580.898438 212.734375 581.351562 L 191.746094 679.738281 C 194.679688 681.320312 197.390625 683.574219 199.421875 686.507812 Z M 273.210938 746.085938 C 276.371094 740.441406 281.789062 736.382812 288.332031 735.476562 L 293.070312 677.03125 C 288.78125 675.675781 284.945312 673.195312 282.238281 669.585938 L 203.484375 697.339844 C 203.484375 697.792969 203.484375 698.242188 203.484375 698.695312 C 203.484375 701.628906 202.804688 704.335938 201.902344 707.042969 C 214.3125 715.621094 227.628906 723.742188 241.394531 730.964844 C 251.773438 736.382812 262.378906 741.34375 273.210938 746.085938 Z M 374.984375 669.359375 C 377.46875 665.523438 381.304688 662.589844 385.59375 661.007812 C 381.53125 647.019531 377.695312 633.480469 374.308594 619.714844 C 373.859375 619.714844 373.632812 619.714844 373.179688 619.714844 C 361.445312 619.714844 351.96875 610.234375 351.96875 598.5 C 351.96875 596.921875 352.195312 595.566406 352.417969 594.214844 C 350.839844 593.3125 349.035156 592.410156 347.457031 591.503906 C 337.976562 586.089844 329.175781 580.222656 320.828125 573.453125 C 318.34375 575.03125 315.410156 575.933594 312.25 576.386719 L 307.511719 637.089844 C 314.734375 640.25 319.699219 647.246094 320.148438 655.59375 Z M 411.09375 777.675781 C 413.121094 771.808594 417.636719 767.070312 423.503906 764.8125 C 414.476562 743.375 406.128906 722.164062 398.90625 701.402344 C 396.875 702.082031 394.84375 702.304688 392.8125 702.304688 C 381.078125 702.304688 371.601562 692.828125 371.601562 681.09375 L 371.601562 680.191406 L 317.667969 666.652344 C 314.960938 671.617188 310.222656 675.453125 304.578125 677.03125 L 299.839844 736.605469 C 307.738281 739.765625 313.15625 747.4375 313.15625 756.238281 C 313.15625 757.59375 312.929688 758.945312 312.703125 760.074219 C 319.925781 762.332031 327.144531 764.136719 334.367188 765.941406 C 358.964844 772.035156 384.464844 775.871094 411.09375 777.675781 Z M 251.546875 342.601562 C 251.773438 342.601562 252.226562 342.601562 252.453125 342.601562 C 254.480469 333.800781 257.191406 325.449219 260.125 317.324219 C 267.570312 297.691406 277.726562 279.867188 290.8125 263.84375 C 289.234375 261.585938 288.332031 258.878906 287.878906 256.171875 L 229.886719 250.753906 C 228.304688 254.367188 225.824219 257.523438 222.4375 259.78125 Z M 236.65625 377.125 C 233.722656 373.515625 231.914062 368.777344 231.914062 363.8125 C 231.914062 356.589844 235.527344 350.273438 240.941406 346.4375 L 211.832031 263.617188 C 211.378906 263.617188 210.929688 263.617188 210.476562 263.617188 C 204.386719 263.617188 198.96875 261.136719 195.132812 257.074219 L 75.304688 310.105469 C 75.304688 310.78125 75.304688 311.234375 75.304688 311.910156 C 75.304688 315.972656 74.179688 319.582031 72.371094 322.742188 L 181.140625 418.195312 C 184.300781 416.390625 188.136719 415.261719 191.972656 415.261719 C 195.359375 415.261719 198.519531 415.941406 201.226562 417.292969 Z M 246.132812 383.894531 L 245.679688 383.671875 L 209.574219 424.964844 C 211.832031 428.351562 212.960938 432.1875 212.960938 436.476562 C 212.960938 444.824219 208.222656 451.820312 201.453125 455.429688 L 214.3125 539.378906 C 222.4375 540.28125 229.207031 545.921875 231.691406 553.367188 L 289.460938 550.210938 C 289.910156 548.179688 290.8125 546.375 291.714844 544.792969 C 284.496094 535.765625 277.949219 526.0625 272.082031 515.457031 C 263.058594 499.210938 256.511719 481.832031 252 463.328125 C 247.488281 444.824219 245.230469 425.417969 245.230469 404.65625 C 245.457031 397.660156 245.679688 390.664062 246.132812 383.894531 Z M 280.660156 74.511719 C 275.921875 72.933594 271.859375 69.773438 269.148438 65.710938 C 260.125 69.546875 251.097656 73.835938 242.296875 78.574219 C 222.664062 88.730469 204.386719 100.464844 187.460938 113.328125 C 188.589844 115.808594 189.265625 118.742188 189.265625 121.675781 C 189.265625 122.351562 189.265625 123.03125 189.265625 123.707031 L 263.734375 151.914062 C 267.121094 147.175781 272.308594 143.789062 278.402344 143.113281 Z M 307.964844 51.269531 C 308.191406 52.171875 308.191406 53.300781 308.191406 54.203125 C 308.191406 64.132812 301.195312 72.480469 291.941406 74.738281 L 289.6875 144.46875 C 290.8125 144.917969 291.714844 145.597656 292.84375 146.046875 L 447.875 30.28125 C 397.777344 30.734375 351.066406 37.730469 307.964844 51.269531 Z M 569.28125 415.488281 L 751.84375 415.488281 L 751.84375 691.472656 C 710.09375 721.488281 662.027344 744.277344 607.871094 760.300781 C 555.96875 775.644531 504.066406 783.542969 452.386719 784.222656 L 452.386719 784.445312 C 452.386719 796.179688 442.910156 805.660156 431.175781 805.660156 C 421.019531 805.660156 412.445312 798.4375 410.414062 788.960938 C 383.109375 787.15625 356.933594 783.09375 331.660156 777 C 323.535156 774.96875 315.410156 772.710938 307.511719 770.457031 C 303.675781 774.742188 298.035156 777.453125 291.714844 777.453125 C 280.207031 777.453125 270.957031 768.425781 270.503906 757.140625 C 258.769531 752.175781 247.261719 746.761719 235.976562 740.894531 C 221.535156 733.222656 207.769531 724.871094 194.683594 715.84375 C 191.296875 718.328125 187.007812 719.90625 182.269531 719.90625 C 170.535156 719.90625 161.058594 710.429688 161.058594 698.695312 C 161.058594 695.988281 161.507812 693.28125 162.636719 690.796875 C 159.253906 687.863281 156.09375 684.929688 152.933594 681.996094 C 128.5625 659.203125 107.574219 633.027344 89.972656 603.691406 C 86.816406 598.5 83.882812 593.535156 81.171875 588.347656 C 79.820312 588.570312 78.464844 588.796875 77.113281 588.796875 C 65.378906 588.796875 55.898438 579.320312 55.898438 567.585938 C 55.898438 560.816406 59.058594 554.949219 63.796875 551.113281 C 58.382812 537.796875 53.867188 524.03125 50.257812 510.042969 C 41.457031 476.867188 36.945312 441.664062 36.945312 404.882812 C 36.945312 379.15625 38.972656 354.335938 43.261719 330.414062 C 36.945312 326.804688 32.882812 320.035156 32.882812 312.136719 C 32.882812 301.078125 41.457031 291.824219 52.515625 290.921875 C 61.316406 260.910156 73.726562 232.476562 89.972656 205.621094 C 106.671875 177.867188 126.53125 153.042969 149.324219 131.152344 C 147.96875 128.21875 147.066406 125.0625 147.066406 121.675781 C 147.066406 109.941406 156.542969 100.464844 168.277344 100.464844 C 172.792969 100.464844 177.078125 101.816406 180.691406 104.527344 C 198.066406 91.210938 217.023438 79.25 237.332031 68.644531 C 246.808594 63.679688 256.289062 59.167969 265.992188 55.105469 L 265.992188 54.652344 C 265.992188 42.917969 275.46875 33.441406 287.203125 33.441406 C 293.746094 33.441406 299.613281 36.375 303.675781 41.113281 C 348.808594 26.671875 397.328125 19.675781 449.453125 19.449219 C 451.9375 10.648438 460.0625 4.332031 469.765625 4.332031 C 481.5 4.332031 490.976562 13.808594 490.976562 25.542969 C 490.976562 25.996094 490.976562 26.21875 490.976562 26.671875 C 542.652344 30.507812 590.269531 41.339844 633.144531 59.617188 C 687.304688 82.636719 732.660156 115.582031 768.765625 158.683594 L 637.433594 277.609375 C 588.011719 223.449219 528.886719 196.144531 460.0625 196.144531 C 442.007812 196.144531 425.082031 197.722656 409.0625 200.882812 C 409.0625 201.109375 409.0625 201.558594 409.0625 201.785156 C 409.0625 213.519531 399.582031 223 387.847656 223 C 382.207031 223 377.015625 220.742188 373.179688 217.132812 C 364.605469 220.515625 356.480469 224.578125 348.582031 229.089844 C 341.363281 233.378906 334.59375 238.117188 328.046875 243.308594 C 329.402344 246.015625 330.078125 249.175781 330.078125 252.335938 C 330.078125 264.070312 320.601562 273.546875 308.867188 273.546875 C 305.480469 273.546875 302.324219 272.871094 299.613281 271.289062 C 287.429688 286.183594 277.949219 302.882812 270.957031 321.160156 C 268.023438 328.835938 265.539062 336.957031 263.507812 345.082031 C 270.054688 348.691406 274.339844 355.6875 274.339844 363.585938 C 274.339844 373.742188 267.121094 382.316406 257.640625 384.347656 C 257.191406 390.890625 256.964844 397.660156 256.964844 404.429688 C 256.964844 424.289062 258.996094 442.792969 263.28125 460.394531 C 267.570312 477.773438 273.890625 494.246094 282.238281 509.816406 C 287.429688 519.519531 293.523438 528.320312 300.066406 536.667969 C 303 535.089844 306.382812 534.1875 310.222656 534.1875 C 321.957031 534.1875 331.433594 543.664062 331.433594 555.398438 C 331.433594 559.011719 330.53125 562.394531 328.949219 565.328125 C 336.398438 571.195312 344.523438 576.835938 353.097656 581.578125 C 354.675781 582.480469 356.03125 583.15625 357.609375 584.058594 C 361.445312 579.769531 367.085938 577.289062 373.179688 577.289062 C 384.914062 577.289062 394.394531 586.765625 394.394531 598.5 C 394.394531 600.53125 394.167969 602.5625 393.492188 604.59375 C 413.347656 610.234375 434.785156 613.167969 457.804688 613.167969 C 497.519531 613.167969 534.753906 605.269531 569.507812 589.25 L 569.507812 415.488281 Z M 569.28125 415.488281 " fill-opacity="1" fill-rule="evenodd"/></g><g clip-path="url(#8ae1f655a0)"><path fill="#5383ff" d="M 746.199219 421.128906 L 574.921875 421.128906 L 574.921875 592.859375 L 571.539062 594.4375 C 553.710938 602.5625 535.433594 608.65625 516.25 612.71875 C 497.296875 616.78125 477.664062 618.8125 457.351562 618.8125 C 436.816406 618.8125 417.183594 616.554688 398.90625 612.039062 C 380.402344 607.527344 363.25 600.53125 347.230469 591.503906 C 331.207031 582.480469 316.765625 571.421875 304.355469 558.785156 C 291.714844 546.148438 281.109375 531.480469 272.082031 515.230469 C 263.058594 498.984375 256.511719 481.609375 252 463.105469 C 247.488281 444.597656 245.230469 425.191406 245.230469 404.429688 C 245.230469 372.160156 250.195312 343.050781 259.898438 317.101562 C 269.828125 290.921875 284.496094 268.132812 304.128906 248.722656 C 323.761719 229.089844 346.550781 214.648438 372.730469 204.71875 C 398.679688 195.015625 427.566406 190.050781 459.382812 190.050781 C 494.585938 190.050781 527.308594 197.046875 557.773438 210.8125 C 586.433594 223.902344 613.058594 243.308594 637.207031 269.035156 L 760.417969 157.554688 C 743.492188 137.921875 724.761719 120.773438 704.003906 105.429688 C 681.660156 89.179688 657.289062 75.414062 630.660156 64.132812 C 604.035156 52.847656 575.375 44.273438 545.136719 38.632812 C 514.898438 32.992188 482.851562 30.058594 449.230469 30.058594 C 410.640625 30.058594 374.082031 34.117188 339.558594 42.015625 C 305.03125 49.914062 272.535156 61.875 242.070312 77.898438 C 211.605469 93.917969 184.527344 112.875 160.605469 134.988281 C 136.914062 157.105469 116.375 182.378906 99.226562 210.8125 C 82.074219 239.246094 69.214844 269.484375 60.636719 301.753906 C 52.0625 334.023438 47.773438 368.097656 47.773438 404.207031 C 47.773438 440.3125 52.0625 474.386719 60.636719 506.65625 C 69.214844 538.699219 82.074219 569.164062 99.226562 597.597656 C 116.375 626.03125 136.6875 651.304688 160.382812 673.421875 C 184.074219 695.535156 210.929688 714.71875 240.941406 730.515625 C 301.195312 762.332031 369.34375 778.355469 444.941406 778.355469 C 471.796875 778.355469 498.648438 776.324219 525.503906 772.488281 C 552.355469 768.425781 579.210938 762.558594 606.066406 754.660156 C 632.917969 746.761719 658.191406 737.058594 681.886719 725.773438 C 704.679688 714.941406 725.890625 702.53125 745.976562 688.316406 L 745.976562 421.128906 Z M 569.28125 409.847656 L 757.484375 409.847656 L 757.484375 694.40625 L 755.226562 696.214844 C 734.242188 711.332031 711.449219 724.644531 687.078125 736.378906 C 662.707031 748.117188 636.980469 757.820312 609.675781 765.941406 C 582.371094 774.066406 554.839844 780.160156 527.535156 784.222656 C 500.230469 788.285156 472.699219 790.3125 445.394531 790.3125 C 367.992188 790.3125 298.261719 773.839844 236.203125 741.121094 C 205.0625 724.648438 177.53125 705.015625 153.160156 682.222656 C 128.789062 659.429688 107.800781 633.253906 90.199219 603.917969 C 72.597656 574.582031 59.285156 543.4375 50.484375 510.042969 C 41.683594 476.867188 37.167969 441.664062 37.167969 404.882812 C 37.167969 367.875 41.683594 332.894531 50.484375 299.722656 C 59.285156 266.550781 72.597656 235.183594 90.199219 205.847656 C 107.800781 176.511719 129.015625 150.5625 153.609375 127.542969 C 178.207031 104.75 206.191406 85.117188 237.558594 68.644531 C 268.925781 52.171875 302.324219 39.984375 337.75 31.863281 C 373.179688 23.738281 410.414062 19.675781 449.90625 19.675781 C 484.207031 19.675781 516.929688 22.609375 548.070312 28.476562 C 578.984375 34.34375 608.320312 42.917969 635.851562 54.652344 C 663.382812 66.386719 688.65625 80.605469 711.675781 97.304688 C 734.691406 114.003906 755.226562 133.410156 773.730469 155.300781 L 777.117188 159.363281 L 773.054688 162.972656 L 640.816406 281.671875 L 636.527344 285.507812 L 632.691406 281.445312 C 608.546875 254.816406 581.917969 234.957031 553.257812 221.644531 C 524.375 208.332031 493.234375 201.785156 459.609375 201.785156 C 428.917969 201.785156 401.386719 206.300781 376.792969 215.550781 C 352.417969 224.804688 330.757812 238.570312 312.25 256.847656 C 293.746094 275.125 279.757812 296.789062 270.503906 321.160156 C 261.253906 345.757812 256.511719 373.515625 256.511719 404.65625 C 256.511719 424.515625 258.542969 443.019531 262.832031 460.621094 C 267.121094 477.996094 273.4375 494.46875 281.789062 510.042969 C 290.136719 525.386719 300.292969 539.152344 312.25 551.113281 C 323.984375 563.070312 337.527344 573.453125 352.644531 582.027344 C 367.765625 590.601562 384.238281 597.148438 401.613281 601.433594 C 418.992188 605.722656 437.71875 607.980469 457.351562 607.980469 C 476.761719 607.980469 495.714844 605.949219 513.769531 602.113281 C 530.691406 598.5 547.167969 593.085938 563.1875 586.089844 L 563.1875 410.296875 L 569.28125 410.296875 Z M 569.28125 409.847656 " fill-opacity="1" fill-rule="nonzero"/></g></svg>